<?xml version="1.0" encoding="utf-8"?>
<!-- Generator: Adobe Illustrator 16.0.0, SVG Export Plug-In . SVG Version: 6.00 Build 0)  -->
<!DOCTYPE svg PUBLIC "-//W3C//DTD SVG 1.1//EN" "http://www.w3.org/Graphics/SVG/1.1/DTD/svg11.dtd">
<svg version="1.1" id="Capa_1" xmlns="http://www.w3.org/2000/svg" xmlns:xlink="http://www.w3.org/1999/xlink" x="0px" y="0px"
	 width="1500px" height="1500px" viewBox="-675 -675 1500 1500" enable-background="new -675 -675 1500 1500" xml:space="preserve">
<g>
	<g>
		<polygon fill="#F7B844" points="763.778,624.732 -553.669,624.732 -553.669,-382.485 763.778,-382.198 		"/>
		<rect x="-553.669" y="574.829" fill="#D0455C" width="1317.447" height="79.845"/>
		<path fill="#FFCAA5" d="M-398.9-321.754"/>
		<rect x="334.61" y="574.829" fill="#B3B3B3" width="389.244" height="49.903"/>
		<rect x="274.726" y="624.732" fill="#999999" width="499.032" height="29.941"/>
		<rect x="-573.63" y="-313.45" fill="#F6ECE3" width="1347.388" height="59.885"/>
		<g>
			<g>
				<rect x="-473.823" y="-103.855" fill="#8CD6EA" width="748.549" height="399.227"/>
				<path fill="#C7B299" d="M284.706,315.332h-768.51v-429.168h768.51V315.332z M-463.843,285.39h728.588V-93.875h-728.588V285.39z"
					/>
			</g>
			<g>
				<polygon fill="#B3E8F4" points="-443.882,182.795 -443.882,265.429 234.803,265.429 234.803,-63.933 242.172,-63.933 				"/>
				<polygon fill="#8CD6EA" points="-443.882,-63.933 -443.882,182.795 242.767,-63.933 				"/>
			</g>
		</g>
		<polygon fill="#E84E68" points="783.738,-293.488 -583.611,-293.488 -583.611,-418.208 -270.937,-582.927 456.805,-582.927 
			783.738,-418.208 		"/>
		<g>
			<path fill="#91D028" d="M-188.785,503.601c7.759,0,14.051,6.285,14.051,14.054c0,7.758-6.292,14.056-14.051,14.056
				c-7.764,0-14.054-6.298-14.054-14.056C-202.839,509.886-196.549,503.601-188.785,503.601z"/>
			<path fill="#91D028" d="M-207.679,489.975c7.764,0,14.054,6.296,14.054,14.054c0,7.759-6.291,14.055-14.054,14.055
				s-14.054-6.296-14.054-14.055C-221.733,496.271-215.443,489.975-207.679,489.975z"/>
			<path fill="#91D028" d="M-201.52,467.108c7.758,0,14.051,6.297,14.051,14.054c0,7.76-6.292,14.056-14.051,14.056
				c-7.764,0-14.054-6.296-14.054-14.056C-215.574,473.405-209.284,467.108-201.52,467.108z"/>
			<path fill="#91D028" d="M-175.603,465.803c7.762,0,14.055,6.295,14.055,14.054s-6.293,14.056-14.055,14.056
				c-7.758,0-14.051-6.297-14.051-14.056S-183.361,465.803-175.603,465.803z"/>
			<path fill="#91D028" d="M-169.452,489.964c7.764,0,14.059,6.297,14.059,14.064c0,7.759-6.295,14.055-14.059,14.055
				c-7.768,0-14.066-6.296-14.066-14.055C-183.518,496.261-177.22,489.964-169.452,489.964z"/>
			<path fill="#F6D23F" d="M-190.101,482.068c7.758,0,14.051,6.288,14.051,14.046c0,7.769-6.292,14.055-14.051,14.055
				c-7.764,0-14.054-6.286-14.054-14.055C-204.155,488.356-197.865,482.068-190.101,482.068z"/>
		</g>
		<g>
			<path fill="#E84E68" d="M-465.817,358.782c8.44,0,15.289,6.853,15.289,15.303c0,8.441-6.848,15.283-15.289,15.283
				c-8.445,0-15.293-6.842-15.293-15.283C-481.11,365.635-474.262,358.782-465.817,358.782z"/>
		</g>
		<g>
			<path fill="#56E6F3" d="M153.905,514.984c3.693,0,6.688,2.991,6.688,6.676c0,3.693-2.994,6.677-6.688,6.677
				c-3.685,0-6.666-2.983-6.666-6.677C147.239,517.976,150.221,514.984,153.905,514.984z"/>
		</g>
		<path fill="#29A7DE" d="M-208.348,385.996l-0.448-0.937l-7.32-2.446c-8.542-1.452-14.08-2.192-16.595-2.192
			c-6.437-0.021-13.835,1.521-22.178,4.658l-0.73-0.447c-0.21-0.117-0.658-0.303-0.527-0.624c0.039-0.099,0.488-0.546,0.696-1.15
			c5.801-6.346,13.354-10.216,15.694-11.335c-0.083,0.398,0.02,0.828,0.409,1.043c0.468,0.272,1.067,0.127,1.354-0.371
			c0.269-0.467,0.102-1.062-0.371-1.345c-0.276-0.166-0.583-0.146-0.866-0.021c-0.477,0.205-9.363,4.134-16.127,11.347
			c-0.02-0.41-0.161-0.811-0.561-1.249c-0.418-0.468-0.916-0.409-1.389-0.154c0.61-7.779-0.808-14.465-0.954-15.138
			c-0.063-0.282-0.219-0.557-0.521-0.674c-0.497-0.224-1.078,0-1.307,0.509c-0.22,0.486,0,1.071,0.506,1.306
			c0.4,0.176,0.819,0.02,1.093-0.282c0.399,2.095,1.314,7.972,0.755,14.57c-0.62,0.478-1.126,1.141-1.208,1.112
			c0,0-0.736-1.141-0.994-1.492c-0.663-0.868-1-1.919-1.093-3.557c-0.106-2.34-0.755-4.737-1.963-7.136
			c-0.532-1.071-1.287-2.573-2.287-4.424c-1.506-2.837-2.816-5.166-3.962-6.971c-3.313-4.882-5.439-7.904-6.36-8.976
			c-3.259-3.743-6.884-8.957-10.896-7.633c-1.257,0.42-2.744,3.11-3.036,4.396c-0.117,0.623-0.059,1.881-0.059,2.495
			c0.009,1.677-0.322,2.808-0.409,3.528c-0.151,1.121,0.181,2.222,0.331,3.314c0.02,0.136-0.161,2.505-0.36,7.135
			c-0.131,2.719-0.418,4.698-0.819,5.906c-1.296,3.84-0.331,7.135,2.875,9.873c-0.74,0.479-1.568,0.81-2.475,1.004
			c-2.365,0.546-2.515,0.058-3.685,0.897c-1.126,0.818-2.003,1.792-3.383,3.422c-0.877,1.042-1.734,5.213-1.734,5.213
			c-0.941,2.787,0.146,6.443,3.279,10.976c2.866,4.189,5.512,6.676,7.95,7.494c1.276,0.439,2.763,0.205,4.487-0.71
			c2.19-1.132,3.827-1.784,4.924-1.93c1.934-0.245,3.649-0.645,5.126-1.181c1.828-0.614,3.366-1.452,4.624-2.523
			c0.23,0.272,0.468,0.535,0.717,0.74c-0.048,0.691-0.15,1.403-0.326,2.124l-0.41,2.963c0.117-0.155,0.439-0.321,0.937-0.467
			c0.521-0.216,0.857-0.468,1.008-0.731c0.208-0.243,0.516-0.76,0.907-1.531c0.521-1.373,0.901-2.222,1.14-2.522
			c0.229-0.303,0.527-0.527,0.887-0.654c0.389-0.204,0.751-0.389,1.076-0.623c-0.018,4.122,0.064,7.027,0.272,8.703
			c0.347,3.021,1.108,5.722,2.307,8.12c0.848,1.695,2.343,3.333,4.458,4.873c2.135,1.491,4.723,2.748,7.746,3.753
			c2.427,0.827,5.282-0.05,8.542-2.643c2.904-2.3,4.78-4.736,5.632-7.291c0.479-1.393,0.546-2.66,0.21-3.801
			c-0.17-0.623-0.541-1.909-1.111-3.85c2.418,0.282,4.533-0.146,6.322-1.286c1.564-0.966,2.621-2.29,3.211-4.045
			c0.497-1.502,3.002-3.753,7.495-6.765C-213.26,393.305-210.097,389.856-208.348,385.996z"/>
		<g>
			<g>
				<path fill="#32A3DD" d="M244.219,415.997l-2.611-2.058c-1.795-1.432-44.075-35.322-39.738-58.568
					c1.424-7.67,7.543-13.235,18.157-16.55c11.931-3.742,20.839-1.852,26.259,5.42c13.742,18.499-0.507,66.55-1.11,68.577
					L244.219,415.997z M230.973,341.434c-2.826,0-6.052,0.565-9.602,1.687c-8.907,2.758-13.975,7.173-15.068,13.061
					c-1.559,8.372,4.445,20.322,17.37,34.61c7.007,7.72,14.308,14.212,18.09,17.427c2.953-11.111,11.373-47.184,0.887-61.297
					C239.929,343.236,236.09,341.434,230.973,341.434z"/>
				<path fill="#32A3DD" d="M246.129,416.19l0.526-3.294c0.391-2.632,10.243-64.485,36.813-64.485
					c5.702,0,11.668,2.866,17.748,8.511c8.149,7.563,11.27,15.194,9.26,22.719c-6.082,22.866-58.85,35.283-61.093,35.789
					L246.129,416.19z M283.469,352.935c-17.71,0-28.412,38.598-31.805,57.281c4.816-1.275,14.251-3.985,23.929-7.982
					c17.78-7.329,28.335-15.536,30.519-23.753c1.538-5.779-1.132-11.929-7.975-18.265
					C292.934,355.391,287.991,352.935,283.469,352.935z"/>
				<path fill="#32A3DD" d="M305.448,456.299c-22.818,0-54.934-34.444-56.297-35.917l-2.263-2.437l3.12-1.188
					c1.091-0.438,27.72-10.526,49.249-10.526c11.269,0,19.212,2.826,23.627,8.382c4.045,5.127,5.019,12.437,2.854,21.735
					C321.9,452.839,312.582,456.299,305.448,456.299z M254.861,419.816c7.808,7.896,33.073,31.97,50.587,31.97
					c8.108,0,13.313-5.38,15.896-16.452c1.862-7.896,1.18-13.929-1.979-17.914c-3.518-4.417-10.271-6.688-20.096-6.688
					C282.834,410.732,262.621,417.127,254.861,419.816z"/>
				<path fill="#32A3DD" d="M258.253,498.746c-6.665,0-11.87-2.496-15.486-7.418c-13.616-18.587,1.335-66.628,1.979-68.676
					l0.993-3.167l2.593,2.105c1.782,1.462,43.567,35.955,38.918,59.144c-1.529,7.641-7.729,13.119-18.382,16.296
					C265.019,498.161,261.44,498.746,258.253,498.746z M248.088,427.321c-3.108,11.083-12.065,47.175-1.676,61.346
					c2.739,3.743,6.618,5.566,11.841,5.566c2.761,0,5.906-0.507,9.339-1.53c8.947-2.661,14.055-6.979,15.242-12.866
					c1.679-8.323-4.17-20.37-16.891-34.824C259.054,437.166,251.84,430.587,248.088,427.321z"/>
				<path fill="#32A3DD" d="M205.787,486.504c-5.76,0-11.775-2.943-17.846-8.753c-8.051-7.681-11.071-15.361-8.948-22.865
					c6.413-22.759,59.357-34.445,61.62-34.933l3.255-0.702l-0.546,3.285C242.854,425.139,232.21,486.504,205.787,486.504z
					 M238.233,425.148c-4.834,1.208-14.298,3.801-24.034,7.65c-17.895,7.096-28.549,15.157-30.869,23.315
					c-1.606,5.77,0.985,11.948,7.711,18.382c5.224,4.991,10.193,7.515,14.746,7.515
					C223.418,482.001,234.589,443.697,238.233,425.148z"/>
				<path fill="#32A3DD" d="M191.567,428.481c-11.726,0-19.943-2.895-24.426-8.625c-4.054-5.186-4.932-12.545-2.611-21.872
					c4.035-16.258,13.235-19.669,20.253-19.669c22.847,0,54.757,35.225,56.103,36.726l2.222,2.476l-3.12,1.15
					C238.889,419.057,212.933,428.481,191.567,428.481z M184.783,382.838c-7.972,0-13.159,5.302-15.908,16.238
					c-1.948,7.895-1.354,13.957,1.813,18.012c3.568,4.581,10.605,6.9,20.879,6.9c16.276,0,35.966-5.926,43.606-8.46
					C227.435,407.478,202.309,382.838,184.783,382.838z"/>
			</g>
			<g>
				<g>
					<path fill="#FDD62E" d="M244.959,407.38c5.664,0,10.253,4.601,10.253,10.264s-4.589,10.263-10.253,10.263
						c-5.673,0-10.273-4.6-10.273-10.263S239.286,407.38,244.959,407.38z"/>
					<path fill="#FFFFFF" d="M244.94,430.159c-5.497,0-10.293-3.539-11.93-8.782c-1.015-3.159-0.713-6.551,0.856-9.513
						c1.541-2.975,4.152-5.146,7.35-6.141c1.209-0.37,2.476-0.575,3.724-0.575c5.496,0,10.301,3.518,11.949,8.752
						c1.012,3.207,0.69,6.599-0.868,9.571c-1.53,2.943-4.142,5.117-7.319,6.092C247.475,429.953,246.228,430.159,244.94,430.159z
						 M244.94,409.65c-0.801,0-1.599,0.138-2.379,0.361c-2.047,0.643-3.723,2.047-4.718,3.947c-0.994,1.881-1.169,4.045-0.535,6.073
						c1.042,3.361,4.112,5.613,7.632,5.613c0.819,0,1.638-0.127,2.407-0.352c2.036-0.644,3.693-2.026,4.688-3.928
						c1.003-1.899,1.188-4.055,0.573-6.11C251.529,411.923,248.468,409.65,244.94,409.65z"/>
				</g>
			</g>
		</g>
		<g>
			<g>
				<path fill="#6CB6C8" d="M77.947,446.387c0,0-29.813-36.569-3.434-38.89C100.863,405.157,77.947,446.387,77.947,446.387z"/>
				<path fill="#6CB6C8" d="M80.799,447.585c0,0,16.999-43.986,32.111-22.252C128.008,447.05,80.799,447.585,80.799,447.585z"/>
				<path fill="#6CB6C8" d="M81.17,450.675c0,0,46.663-7.076,35.27,16.813C105.056,491.358,81.17,450.675,81.17,450.675z"/>
				<path fill="#6CB6C8" d="M78.676,452.526c0,0,29.283,36.971,2.883,38.929C55.161,493.425,78.676,452.526,78.676,452.526z"/>
				<path fill="#6CB6C8" d="M75.839,451.27c0,0-17.622,43.744-32.413,21.823C28.629,451.144,75.839,451.27,75.839,451.27z"/>
				<path fill="#6CB6C8" d="M75.511,448.18c0,0-46.759,6.423-35.033-17.29C52.208,407.165,75.511,448.18,75.511,448.18z"/>
			</g>
			<g>
				<g>
					<path fill="#3B76BA" d="M77.997,446.894c0,0-24.923-30.575-2.875-32.535C97.179,412.429,77.997,446.894,77.997,446.894z"/>
					<path fill="#FFFFFF" d="M78.057,447.557l-0.352-0.43c-0.62-0.77-15.297-18.928-11.414-28.129
						c1.225-2.925,4.193-4.61,8.802-5.009c4.781-0.41,8.045,0.817,9.711,3.663c5.03,8.539-5.998,28.559-6.472,29.416L78.057,447.557
						z M76.848,414.661c-0.537,0-1.107,0.038-1.697,0.078c-4.312,0.38-7.056,1.9-8.162,4.552c-3.382,8.03,8.705,24.016,10.958,26.9
						c1.697-3.187,10.602-20.701,6.206-28.158C82.837,415.802,80.371,414.661,76.848,414.661z"/>
				</g>
				<g>
					<path fill="#3B76BA" d="M80.39,447.887c0,0,14.217-36.783,26.829-18.605C119.85,447.439,80.39,447.887,80.39,447.887z"/>
					<path fill="#FFFFFF" d="M79.834,448.277l0.21-0.526c0.381-0.975,9.363-23.899,19.62-23.899c2.817,0,5.493,1.745,7.876,5.206
						c2.642,3.78,3.227,7.134,1.799,9.94c-4.572,8.899-27.93,9.26-28.929,9.279H79.834z M99.654,424.622
						c-8.913,0-17.256,19.386-18.695,22.886c3.656-0.127,23.705-1.112,27.668-8.841c1.33-2.553,0.741-5.634-1.735-9.182
						C104.664,426.25,102.208,424.622,99.654,424.622z"/>
				</g>
				<g>
					<path fill="#3B76BA" d="M80.693,450.471c0,0,39.002-5.916,29.488,14.045C100.654,484.477,80.693,450.471,80.693,450.471z"/>
					<path fill="#FFFFFF" d="M102.447,471.191c-9.926,0-21.594-19.697-22.087-20.536l-0.277-0.487l0.561-0.078
						c0.05,0,5.498-0.818,11.756-0.818c6.826,0,15.589,0.994,18.581,5.741c1.579,2.475,1.424,5.721-0.457,9.658
						C108.456,468.999,105.742,471.191,102.447,471.191z M81.311,450.772c1.906,3.09,12.497,19.649,21.137,19.649
						c2.977,0,5.473-2.037,7.378-6.062c1.78-3.664,1.927-6.687,0.512-8.938c-2.807-4.443-11.32-5.391-17.947-5.391
						C87.369,450.031,82.856,450.568,81.311,450.772z"/>
				</g>
				<g>
					<path fill="#3B76BA" d="M78.605,452.02c0,0,24.476,30.918,2.424,32.554C58.942,486.201,78.605,452.02,78.605,452.02z"/>
					<path fill="#FFFFFF" d="M79.542,485.004c-3.933,0-6.666-1.277-8.123-3.812c-4.982-8.597,6.368-28.509,6.865-29.348l0.274-0.508
						l0.346,0.439c0.619,0.779,15.035,19.143,11.018,28.295c-1.274,2.886-4.249,4.532-8.869,4.882
						C80.521,484.983,80.024,485.004,79.542,485.004z M78.646,452.722c-1.745,3.167-10.907,20.605-6.579,28.09
						c1.491,2.564,4.434,3.714,8.923,3.383c4.313-0.322,7.087-1.822,8.236-4.436C92.721,471.787,80.872,455.626,78.646,452.722z"/>
				</g>
				<g>
					<path fill="#3B76BA" d="M76.219,450.979c0,0-14.718,36.578-27.096,18.235C36.768,450.87,76.219,450.979,76.219,450.979z"/>
					<path fill="#FFFFFF" d="M56.72,474.75c-2.865,0-5.53-1.803-7.904-5.323c-2.588-3.819-3.138-7.173-1.647-9.96
						c4.659-8.772,28.056-8.869,29.041-8.869h0.569l-0.199,0.526C76.179,452.078,66.96,474.75,56.72,474.75z M75.652,451.356
						c-3.732,0.05-23.702,0.713-27.816,8.441c-1.34,2.535-0.799,5.625,1.619,9.201c2.221,3.314,4.668,4.99,7.274,4.99
						C65.619,473.989,74.186,454.807,75.652,451.356z"/>
				</g>
				<g>
					<path fill="#3B76BA" d="M75.959,448.395c0,0-39.092,5.36-29.292-14.475C56.477,414.105,75.959,448.395,75.959,448.395z"/>
					<path fill="#FFFFFF" d="M65.322,449.447c-7.237,0-16.496-1.043-19.562-5.975c-1.559-2.525-1.369-5.8,0.57-9.709
						c2.096-4.239,4.81-6.402,8.07-6.402c9.943,0,21.418,19.98,21.9,20.838l0.258,0.487l-0.549,0.088
						C75.959,448.774,71.112,449.447,65.322,449.447z M54.4,428.141c-2.953,0-5.428,1.998-7.393,5.965
						c-1.818,3.665-2.027,6.687-0.608,8.958c2.883,4.648,11.875,5.604,18.912,5.604c4.591,0,8.583-0.409,10.019-0.585
						C73.485,444.964,63.065,428.141,54.4,428.141z"/>
				</g>
				<g>
					<path fill="#3B76BA" d="M78.312,444.028c2.969,0,5.372,2.397,5.372,5.36s-2.403,5.381-5.372,5.381
						c-2.962,0-5.363-2.418-5.363-5.381S75.35,444.028,78.312,444.028z"/>
					<path fill="#FFFFFF" d="M78.305,455.139c-2.944,0-5.458-2.3-5.707-5.224c-0.143-1.521,0.325-3.021,1.305-4.19
						c1-1.19,2.37-1.901,3.914-2.047c3.228-0.264,5.95,2.066,6.229,5.213c0.152,1.531-0.322,3.013-1.325,4.201
						c-0.979,1.17-2.359,1.891-3.895,2.028C78.646,455.129,78.474,455.139,78.305,455.139z M78.312,444.417
						c-0.146,0-0.286,0.021-0.438,0.021c-1.325,0.117-2.533,0.74-3.39,1.773c-0.848,1.023-1.258,2.301-1.138,3.627
						c0.231,2.709,2.663,4.765,5.411,4.521c1.325-0.107,2.523-0.741,3.383-1.754c0.857-1.034,1.258-2.32,1.135-3.626
						C83.057,446.367,80.921,444.417,78.312,444.417z"/>
				</g>
			</g>
		</g>
		<rect x="364.551" y="-143.778" fill="#CCCCCC" width="339.344" height="718.607"/>
		<rect x="384.514" y="-93.875" fill="#AB7033" width="299.42" height="668.704"/>
		<polygon fill="#B3B3B3" points="703.895,-143.778 364.551,-143.778 364.551,-67.583 703.895,-86.628 		"/>
		<polygon fill="#CCCCCC" points="715.045,-93.875 349.814,-93.875 339.482,-143.778 725.131,-143.778 		"/>
		<g>
			<polygon fill="#FDD649" points="424.436,295.371 404.475,295.371 404.475,222.104 424.436,222.445 			"/>
			<path fill="#F0B13C" d="M424.241,238.801c0,5.848-4.756,10.585-10.575,10.585c-5.868,0-10.615-4.737-10.615-10.585
				c0-5.838,4.756-10.604,10.615-10.604C419.494,228.196,424.241,232.963,424.241,238.801z"/>
			<path fill="#666666" d="M418.918,282.35c0,1.091-0.876,1.89-1.977,1.89h-1.726c-1.093,0-1.979-0.799-1.979-1.89v-13.12
				c0-1.071,0.887-2.056,1.979-2.056h1.726c1.101,0,1.977,0.984,1.977,2.056V282.35z"/>
		</g>
		<rect x="430.995" y="-20.657" fill="#A56832" width="212.236" height="355.94"/>
		<rect x="430.995" y="364.611" fill="#A56832" width="212.236" height="172.206"/>
		<rect x="461.259" y="25.425" opacity="0.1" fill="#1D1D1B" enable-background="new    " width="169.729" height="117.389"/>
		<rect x="456.15" y="20.376" fill="#00B5AE" width="169.731" height="117.4"/>
		<g>
			<path fill="#F55D5A" d="M492.634,79.081h32.018c5.186,0,9.416,4.24,9.416,9.426v32.007c0,5.195-4.23,9.416-9.416,9.416h-32.018
				c-5.176,0-9.405-4.23-9.405-9.416V88.507C483.229,83.321,487.458,79.081,492.634,79.081z"/>
			<path fill="#F6C700" d="M495.782,84.12h25.691c4.172,0,7.564,3.393,7.564,7.554v25.692c0,4.152-3.393,7.554-7.564,7.554h-25.691
				c-4.152,0-7.544-3.401-7.544-7.554V91.674C488.259,87.513,491.63,84.12,495.782,84.12z"/>
			<path fill="#F55D5A" d="M508.646,82.229c12.312,0,22.283,9.981,22.283,22.28c0,12.301-9.972,22.281-22.283,22.281
				c-12.3,0-22.271-9.98-22.271-22.281C486.376,92.211,496.347,82.229,508.646,82.229z"/>
			<path fill="#F6C700" d="M522.8,118.623h-6.199l-2.474-6.412h-5.665v-4.767h3.852l-3.852-10.341v-6.707h3.051L522.8,118.623z
				 M508.462,112.211h-5.604l-2.319,6.412h-6.042L505.5,90.407h2.972v6.696l-0.029-0.117l-3.819,10.469h3.849v4.756H508.462z"/>
			<path fill="#7DC256" d="M550.52,79.081h32.019c5.176,0,9.425,4.24,9.425,9.426v32.007c0,5.195-4.249,9.416-9.425,9.416H550.52
				c-5.186,0-9.416-4.23-9.416-9.416V88.507C541.104,83.321,545.334,79.081,550.52,79.081z"/>
			<path fill="#FFFFFF" d="M553.688,84.12h25.683c4.152,0,7.571,3.393,7.571,7.554v25.692c0,4.152-3.419,7.554-7.571,7.554h-25.683
				c-4.162,0-7.574-3.401-7.574-7.554V91.674C546.113,87.513,549.525,84.12,553.688,84.12z"/>
			<path fill="#7DC256" d="M566.543,82.229c12.301,0,22.281,9.981,22.281,22.28c0,12.301-9.98,22.281-22.281,22.281
				s-22.281-9.98-22.281-22.281C544.262,92.211,554.242,82.229,566.543,82.229z"/>
			<path fill="#FFFFFF" d="M566.445,90.407h0.098c2.222,0,3.899,0.106,4.99,0.282c1.111,0.176,2.085,0.564,2.944,1.149
				c0.866,0.604,1.598,1.375,2.164,2.379c0.585,0.975,0.866,2.066,0.866,3.283c0,1.316-0.34,2.545-1.062,3.646
				c-0.702,1.102-1.676,1.921-2.905,2.466c1.715,0.507,3.052,1.355,3.967,2.563c0.926,1.22,1.395,2.642,1.395,4.259
				c0,1.287-0.292,2.515-0.897,3.743c-0.594,1.229-1.422,2.183-2.437,2.904c-1.043,0.731-2.318,1.16-3.83,1.347
				c-0.81,0.076-2.563,0.146-5.272,0.175v-4.737c1.918,0,3.138-0.059,3.684-0.176c0.838-0.155,1.53-0.526,2.065-1.13
				c0.527-0.596,0.801-1.396,0.801-2.397c0-0.839-0.205-1.561-0.625-2.145c-0.409-0.604-0.994-1.043-1.772-1.287
				c-0.673-0.242-2.067-0.37-4.152-0.409v-4.707c1.208-0.02,1.988-0.059,2.357-0.098c0.976-0.128,1.755-0.458,2.301-1.004
				c0.564-0.575,0.839-1.307,0.839-2.223c0-0.867-0.244-1.58-0.722-2.125c-0.469-0.545-1.199-0.878-2.135-0.995
				c-0.4-0.038-1.267-0.076-2.661-0.096V90.407z M555.236,90.407h11.209v4.706c-0.623,0-1.375,0-2.223,0h-3.254v6.522h3.722
				c0.653,0,1.248,0,1.755-0.011v4.698c-0.272,0-0.584,0-0.897,0h-4.579v7.544h5.252h0.225v4.746l-1.599,0.021h-9.61V90.407
				L555.236,90.407z"/>
			<g>
				<path fill="#A373D9" d="M529.321,28.232h32.007c5.176,0,9.425,4.239,9.425,9.434v31.989c0,5.186-4.249,9.416-9.425,9.416
					h-32.007c-5.176,0-9.407-4.23-9.407-9.416V37.667C519.895,32.472,524.146,28.232,529.321,28.232z"/>
				<path fill="#F6C700" d="M532.488,33.261h25.673c4.152,0,7.573,3.392,7.573,7.544v25.711c0,4.152-3.421,7.545-7.573,7.545
					h-25.673c-4.162,0-7.564-3.393-7.564-7.545V40.806C524.924,36.653,528.326,33.261,532.488,33.261z"/>
				<path fill="#A373D9" d="M545.334,31.39c12.3,0,22.281,9.98,22.281,22.282c0,12.3-9.981,22.281-22.281,22.281
					s-22.281-9.98-22.281-22.281C523.053,41.37,533.034,31.39,545.334,31.39z"/>
				<path fill="#F6C700" d="M552.107,57.395l5.508,1.745c-0.848,3.089-2.251,5.379-4.221,6.871c-1.96,1.482-4.454,2.242-7.504,2.242
					c-3.744,0-6.834-1.287-9.229-3.841c-2.409-2.573-3.627-6.062-3.627-10.487c0-4.708,1.218-8.362,3.645-10.955
					c2.418-2.592,5.615-3.918,9.562-3.918c3.461,0,6.258,1.033,8.412,3.08c1.286,1.198,2.242,2.934,2.895,5.205l-5.662,1.345
					c-0.312-1.462-1.015-2.631-2.066-3.47c-1.054-0.858-2.349-1.267-3.86-1.267c-2.097,0-3.802,0.741-5.088,2.261
					c-1.305,1.481-1.948,3.918-1.948,7.271c0,3.568,0.632,6.121,1.91,7.642c1.286,1.501,2.953,2.271,5,2.271
					c1.509,0,2.816-0.477,3.928-1.452C550.832,60.981,551.61,59.441,552.107,57.395z"/>
			</g>
		</g>
		<g>
			<g>
				<defs>
					<rect id="SVGID_1_" x="-534.195" y="232.31" width="899.565" height="339.635"/>
				</defs>
				<clipPath id="SVGID_2_">
					<use xlink:href="#SVGID_1_"  overflow="visible"/>
				</clipPath>
				<g clip-path="url(#SVGID_2_)">
					<g>
						<path fill="#D60B54" d="M-9.924,1101.133c-0.34,0-0.706-0.136-0.98-0.281c-106.052-73.598-83.094-263.135-43.724-365.298
							c37.4-96.963-6.724-293.593-7.197-295.551c-4.57-22.389-11.414-46.794-14.971-48.841c-0.867-0.497-1.145-1.54-0.638-2.359
							c0.482-0.818,1.512-1.121,2.378-0.624c6.619,3.879,15.01,43.228,16.638,51.083c0.068,0.458,11.379,50.235,17.803,111.492
							c6.027,56.591,8.975,134.817-10.785,186.084c-17.238,44.65-34.796,118.035-32.481,190.239
							c3.255,100.556,42.558,148.433,74.918,170.879c0.808,0.604,0.983,1.626,0.457,2.427
							C-8.816,1100.852-9.343,1101.133-9.924,1101.133z"/>
					</g>
				</g>
			</g>
			<g>
				<defs>
					<rect id="SVGID_3_" x="-534.195" y="232.31" width="899.565" height="339.635"/>
				</defs>
				<clipPath id="SVGID_4_">
					<use xlink:href="#SVGID_3_"  overflow="visible"/>
				</clipPath>
				<g clip-path="url(#SVGID_4_)">
					<path fill="#959595" d="M-586.812,555.082c-3.115-1.901-4.834-3.235-4.903-3.294l0.6-0.75c0.02,0.009,1.734,1.334,4.81,3.225
						L-586.812,555.082z"/>
					<path fill="#959595" d="M-542.811,568.883c-3.821-0.136-7.714-0.584-11.574-1.286l0.165-0.954
						c3.827,0.691,7.676,1.13,11.438,1.266L-542.811,568.883z M-531.164,568.475l-0.107-0.956c3.792-0.448,7.592-1.15,11.297-2.164
						l0.257,0.937C-523.469,567.325-527.319,568.045-531.164,568.475z M-565.687,564.771c-3.65-1.17-7.305-2.593-10.857-4.211
						l0.418-0.877c3.515,1.599,7.125,3.012,10.741,4.152L-565.687,564.771z M-508.727,562.432l-0.389-0.897
						c3.085-1.345,6.16-2.924,9.142-4.697c0.361-0.196,0.712-0.41,1.058-0.634l0.512,0.828c-0.351,0.215-0.712,0.429-1.067,0.643
						C-502.499,559.469-505.612,561.067-508.727,562.432z M-489.015,550.11l-0.646-0.71c2.953-2.623,5.55-5.469,7.743-8.47
						l0.79,0.593C-483.365,544.574-486.021,547.471-489.015,550.11z M-469.583,537.538c-3.184,0-6.117-0.644-8.709-1.97l0.439-0.856
						c3.17,1.578,6.896,2.183,10.993,1.695l0.114,0.984C-467.708,537.489-468.653,537.538-469.583,537.538z M-455.529,534.029
						l-0.419-0.896c3.163-1.443,6.505-3.393,9.96-5.732l0.55,0.8C-448.931,530.599-452.338,532.567-455.529,534.029z
						 M-475.422,531.339l-0.897-0.37c1.447-3.558,2.427-7.281,2.906-11.053l0.968,0.117
						C-472.937,523.892-473.937,527.693-475.422,531.339z M-486.597,527.323c-1.778-3.158-3.017-7.008-3.596-11.141l0.97-0.126
						c0.57,3.996,1.764,7.739,3.483,10.779L-486.597,527.323z M-436.217,521.115l-0.617-0.752c2.904-2.416,5.828-4.979,8.712-7.621
						l0.657,0.721C-430.368,516.115-433.301,518.678-436.217,521.115z M-473.516,508.493c-0.614-4.094-1.877-7.915-3.564-10.781
						l0.83-0.486c1.778,3.022,3.056,6.861,3.693,11.12L-473.516,508.493z M-419.017,505.49l-0.684-0.682
						c2.726-2.681,5.454-5.459,8.115-8.266l0.711,0.683C-413.551,500.032-416.284,502.811-419.017,505.49z M-489.165,504.624
						l-0.965-0.138c0.355-2.388,0.907-4.707,1.667-6.833c0.628-1.832,1.436-3.235,2.363-4.19l0.696,0.662
						c-0.837,0.858-1.553,2.154-2.144,3.842C-488.272,500.062-488.825,502.294-489.165,504.624z M-403.033,488.648l-0.727-0.624
						c2.584-2.934,5.099-5.906,7.506-8.83l0.76,0.604C-397.911,482.741-400.436,485.725-403.033,488.648z M-368.169,484.788
						c-4.182-0.117-7.914-1.354-11.097-3.664l0.581-0.78c3.021,2.203,6.563,3.362,10.545,3.479L-368.169,484.788z M-356.647,482.723
						l-0.333-0.917c3.202-1.149,6.617-2.787,10.162-4.893l0.19-0.097l0.487,0.838l-0.131,0.077
						C-349.913,479.896-353.398,481.553-356.647,482.723z M-386.571,471.963c-0.36-0.741-0.702-1.521-1.018-2.331
						c-0.249,0.343-0.503,0.673-0.751,1.023l-0.79-0.585c0.38-0.506,0.76-1.032,1.141-1.52c-0.848-2.418-1.486-5.01-1.905-7.778
						l0.954-0.156c0.38,2.456,0.931,4.796,1.647,6.96c1.725-2.359,3.345-4.718,4.839-6.96l0.819,0.547
						c-1.612,2.437-3.381,4.97-5.258,7.543c0.36,0.984,0.77,1.931,1.208,2.866L-386.571,471.963z M-336.239,471.611l-0.511-0.839
						c3.304-2.066,6.57-4.191,9.703-6.315l0.55,0.818C-329.645,467.381-332.925,469.506-336.239,471.611z M-316.988,458.628
						l-0.567-0.779c3.193-2.31,6.298-4.658,9.231-6.959l0.608,0.76C-310.668,453.97-313.792,456.319-316.988,458.628z
						 M-375.597,451.202l-0.848-0.469c2.131-3.899,3.733-7.427,4.743-10.469l0.939,0.312
						C-371.81,443.678-373.438,447.264-375.597,451.202z M-389.349,449.155l-0.974-0.078c0.298-4.113,1.087-8.081,2.261-11.453
						l0.93,0.312C-388.282,441.251-389.045,445.129-389.349,449.155z M-298.752,444.271l-0.64-0.75
						c3.033-2.622,5.898-5.244,8.515-7.817l0.688,0.692C-292.836,438.979-295.708,441.61-298.752,444.271z M-371.333,429.466
						c-0.887-1.345-2.416-2.125-4.542-2.31c-1.857-0.185-3.582,0.322-5.191,1.471l-0.57-0.799c1.81-1.267,3.754-1.832,5.83-1.637
						c2.445,0.215,4.214,1.149,5.272,2.749L-371.333,429.466z"/>
					<path fill="#959595" d="M-282.134,427.81l-0.751-0.624c2.465-2.924,3.523-4.551,3.533-4.571l0.83,0.536
						C-278.572,423.209-279.63,424.826-282.134,427.81z"/>
				</g>
			</g>
		</g>
		<g>
			<g>
				<path fill="#E4005F" d="M-76.025,374.495c0,0-60.591-18.597-32.875-40.839C-81.245,311.395-76.025,374.495-76.025,374.495z"/>
				<path fill="#E4005F" d="M-71.902,373.734c0,0-13.914-61.784,19.131-48.851C-19.674,337.886-71.902,373.734-71.902,373.734z"/>
				<path fill="#E4005F" d="M-69.188,376.853c0,0,46.789-42.671,51.902-7.544C-12.121,404.455-69.188,376.853-69.188,376.853z"/>
				<path fill="#E4005F" d="M-70.577,380.791c0,0,60.312,19.426,32.301,41.288C-66.284,444.008-70.577,380.791-70.577,380.791z"/>
				<path fill="#E4005F" d="M-74.695,381.474c0,0,13.051,62.018-19.884,48.616C-127.503,416.64-74.695,381.474-74.695,381.474z"/>
				<path fill="#E4005F" d="M-77.352,378.296c0,0-47.426,42.125-52.07,6.871C-134.062,349.933-77.352,378.296-77.352,378.296z"/>
			</g>
			<g>
				<g>
					<path fill="#E99CBF" d="M-75.568,375.001c0,0-50.678-15.478-27.533-34.095C-79.969,322.232-75.568,375.001-75.568,375.001z"/>
					<path fill="#FFFFFF" d="M-75.323,375.332l-0.362-0.076c-0.047,0-7.834-2.477-15.779-6.415
						c-10.721-5.312-16.686-10.778-17.733-16.277c-0.81-4.073,1.214-8.079,5.917-11.832c3.362-2.709,6.486-4.055,9.39-4.055
						c6.38,0,11.419,6.482,15.011,19.222c2.675,9.454,3.474,18.977,3.474,19.103L-75.323,375.332z M-93.881,337.145
						c-2.792,0-5.859,1.346-9.114,3.938c-4.58,3.626-6.544,7.555-5.793,11.424c2.315,12.027,29.688,21.17,32.942,22.232
						C-76.197,371.015-79.847,337.145-93.881,337.145z"/>
				</g>
				<g>
					<path fill="#E99CBF" d="M-72.132,374.357c0,0-11.657-51.676,15.999-40.838C-28.476,344.387-72.132,374.357-72.132,374.357z"/>
					<path fill="#FFFFFF" d="M-72.311,374.719l-0.049-0.293c-0.292-1.141-6.39-28.898,1.734-38.957
						c3.114-3.948,8.067-4.707,14.609-2.105c5.629,2.202,8.77,5.381,9.226,9.531c0.64,5.537-3.436,12.555-12.057,20.859
						c-6.437,6.14-13.113,10.741-13.168,10.779L-72.311,374.719z M-62.979,332.271c-3.074,0-5.512,1.15-7.369,3.411
						c-7.471,9.396-2.313,35.128-1.676,38.354c2.836-1.998,26.21-18.917,24.815-31.083c-0.462-3.945-3.485-7.016-8.997-9.161
						C-58.676,332.798-61.006,332.271-62.979,332.271z"/>
				</g>
				<g>
					<path fill="#E99CBF" d="M-69.866,377.028c0,0,39.123-35.712,43.427-6.316C-22.169,400.07-69.866,377.028-69.866,377.028z"/>
					<path fill="#FFFFFF" d="M-39.197,385.84c-12.813,0-30.619-8.529-30.789-8.626l-0.289-0.127l0.23-0.234
						c0.229-0.174,19.892-17.992,32.752-17.992c6.208,0,9.913,3.978,11.03,11.794c0.74,4.99,0,8.869-2.213,11.365
						C-30.611,384.573-34.266,385.84-39.197,385.84z M-69.475,376.989c2.372,1.082,18.493,8.401,30.277,8.401
						c4.809,0,8.333-1.227,10.438-3.664c2.091-2.427,2.778-6.141,2.091-11.015c-1.101-7.543-4.703-11.422-10.625-11.422
						C-49.236,359.29-67.141,374.884-69.475,376.989z"/>
				</g>
				<g>
					<path fill="#E99CBF" d="M-71.045,380.265c0,0,50.455,16.247,27.018,34.581C-67.442,433.112-71.045,380.265-71.045,380.265z"/>
					<path fill="#FFFFFF" d="M-53.122,418.892c-6.383,0-11.534-6.657-14.896-19.348c-2.559-9.513-3.246-19.144-3.246-19.222v-0.35
						l0.287,0.146c0.055,0,7.769,2.495,15.711,6.54c10.668,5.498,16.526,11.063,17.505,16.59c0.76,4.063-1.325,8.011-6.154,11.754
						C-47.2,417.546-50.333,418.892-53.122,418.892z M-70.805,380.635c0.292,3.704,3.483,37.798,17.684,37.798
						c2.725,0,5.732-1.277,8.988-3.771c4.639-3.646,6.676-7.485,5.964-11.354C-40.293,391.239-67.551,381.707-70.805,380.635z"/>
				</g>
				<g>
					<path fill="#E99CBF" d="M-74.519,380.927c0,0,10.96,51.766-16.575,40.528C-118.652,410.265-74.519,380.927-74.519,380.927z"/>
					<path fill="#FFFFFF" d="M-84.09,423.286c-2.076,0-4.459-0.506-7.067-1.599c-5.676-2.329-8.743-5.575-9.153-9.688
						c-0.526-5.526,3.646-12.477,12.409-20.634c6.496-6.111,13.216-10.634,13.284-10.634l0.289-0.234l0.053,0.37
						c0,0.059,1.506,7.252,2.033,15.585c0.637,11.189-0.819,19.075-4.231,23.315C-78.399,422.079-80.958,423.286-84.09,423.286z
						 M-74.627,381.239c-2.846,1.969-26.438,18.51-25.23,30.703c0.42,3.938,3.363,7.056,8.881,9.317
						c6.321,2.622,11.057,1.968,14.142-1.774C-69.299,410.129-73.989,384.436-74.627,381.239z"/>
				</g>
				<g>
					<path fill="#E99CBF" d="M-76.712,378.237c0,0-39.606,35.146-43.56,5.712C-124.091,354.534-76.712,378.237-76.712,378.237z"/>
					<path fill="#FFFFFF" d="M-109.432,395.918c-6.249,0-9.981-4.025-11.004-11.95c-0.712-4.99,0.106-8.781,2.304-11.275
						c2.144-2.496,5.679-3.714,10.44-3.714c12.812,0,30.896,8.986,31.077,9.025l0.283,0.194l-0.23,0.176
						C-76.785,378.53-96.494,395.918-109.432,395.918z M-107.683,369.437c-4.638,0-8.065,1.15-10.092,3.538
						c-2.135,2.357-2.895,6.062-2.257,10.975c1.043,7.641,4.585,11.52,10.601,11.52c12.007,0,29.994-15.204,32.31-17.231
						C-79.51,377.087-95.846,369.437-107.683,369.437z"/>
				</g>
				<path fill="#005D35" d="M-67.731,373.081c2.497,3.09,2.038,7.612-1.097,10.107c-3.074,2.494-7.646,1.998-10.092-1.052
					c-2.535-3.148-2.027-7.642,1.047-10.138C-74.797,369.505-70.226,369.972-67.731,373.081z"/>
			</g>
		</g>
	</g>
	<g>
		<g>
			<path fill="#F8BF8F" d="M18.113,496.075c8.562-26.131,11.438-120.255,11.686-132.565l-16.715-14.24
				c-5.18,7.203-8.694,113.569-9.654,135.13"/>
			<path fill="#F8BF8F" d="M3.43,484.399l-4.41,12.982c-0.95,3.996-1.356,8.752-0.131,12.65c1.208,3.938,5.55,4.27,7.337,10.897
				c3.343,5.984,9.088,5.048,12.422,5.672c3.324,0.625,6.912-6.121,8.857-11.725c3.322-18.002-0.439-23.246-5.641-31.939"/>
		</g>
		<g>
			<polygon fill="#FFFFFF" points="-1.619,523.813 -27.268,522.782 -45.581,560.521 -40.016,575.96 -23.14,579.936 39.074,580.833 
				43.344,568.162 34.732,528.805 			"/>
			<polygon opacity="0.102" enable-background="new    " points="-18.876,524.848 -20.532,562.45 -27.75,578.396 -39.816,576.798 
				-45.352,560.56 -27.897,522.772 4.298,524.954 32.782,528.454 			"/>
			<path fill="#FFFFFF" d="M19.069,509.038c-9.67,8.246-14.548,20.439-15.937,32.223l-5.03-0.535
				c1.038-11.15,4.07-23.986,15.487-33.686C15.487,507.246,17.184,506.757,19.069,509.038z"/>
		</g>
		<g>
			<path fill="#62401F" d="M246.51,83.847c0,0,99.406,180.92-37.877,257.323c0,0,30.771-25.369,47.301-75.81
				c0,0-28.148,66.648-81.228,79.388l-47.39,1.598c0,0,52.215,13.432,55.265-111.97C182.581,234.376,254.832,257.514,246.51,83.847z
				"/>
			<path fill="#442F18" d="M225.155,152.074c0,0,20.915,168.365-83.921,198.073l-29.708-104.816
				C111.526,245.312,200.495,141.947,225.155,152.074z"/>
			<path fill="#62401F" d="M-34.257,98.272c0,0-104.684,74.815,23.905,257.079c0,0-16.789-22.3-36.688-71.502
				c0.269,1.015,11.858,62.808,70.791,72.77l47.389-1.599c0,0-16.897,21.267-28.446-103.646
				C42.695,251.374-30.82,272.114-34.257,98.272z"/>
			<path fill="#442F18" d="M13.152,209.892c0,0-9.458,169.398,97.126,191.933l22.546-106.591
				C132.824,295.233,37.075,198.117,13.152,209.892z"/>
			<path fill="#FFCBA5" d="M-54.095,213.81c-1.257,41.795,13.401,69.943,54.084,89.222c81.892,23.295,154.54-4.298,184.599-21.93
				c46.999-31.638,54.786-117.272,36.219-178.794C151.938,79.188,106.093,39.646,14.18,32.969
				c-45.054,18.89-64.167,61.854-73.349,105.44C-64.997,168.215-55.315,190.233-54.095,213.81z"/>
			<path fill="#FFCBA5" d="M0.047,241.822c5.571-6.268,8.115-24.465,10.896-19.172c2.866,9.386,23.915,11.745,15.694,21.336
				L0.047,241.822z"/>
			<path fill="#DDAD8C" d="M-26.151,228.138c0.049-0.332,0.307-0.584,0.638-0.575c0.362,0.02,0.59,0.302,0.581,0.634
				c-0.02,0.332-0.313,0.585-0.629,0.585C-25.912,228.742-26.161,228.469-26.151,228.138z"/>
			<path fill="#DDAD8C" d="M-20.722,232.036c0.779,0,1.408,0.644,1.408,1.413c0,0.779-0.629,1.414-1.408,1.414
				c-0.775,0-1.409-0.635-1.409-1.414C-22.13,232.68-21.497,232.036-20.722,232.036z"/>
			<path fill="#DDAD8C" d="M-38.916,241.412c0.775,0,1.404,0.634,1.404,1.403c0,0.78-0.628,1.415-1.404,1.415
				c-0.778,0-1.407-0.635-1.407-1.415C-40.323,242.046-39.694,241.412-38.916,241.412z"/>
			<path fill="#DDAD8C" d="M-23.905,246.501c-0.442-0.021-0.77-0.458-0.731-0.956c0.035-0.507,0.424-0.876,0.863-0.856
				c0.438,0.039,0.766,0.467,0.731,0.974C-23.081,246.16-23.466,246.539-23.905,246.501z"/>
			<ellipse fill="#DDAD8C" cx="47.028" cy="241.306" rx="0.609" ry="0.614"/>
			<path fill="#DDAD8C" d="M50,233.615c0.784,0,1.418,0.644,1.418,1.424c0,0.779-0.634,1.423-1.418,1.423
				c-0.779,0-1.418-0.644-1.418-1.423C48.582,234.259,49.221,233.615,50,233.615z"/>
			<path fill="#DDAD8C" d="M65.463,246.871c0.775,0,1.403,0.624,1.403,1.402c0,0.78-0.628,1.404-1.403,1.404
				c-0.781,0-1.409-0.624-1.409-1.404C64.054,247.495,64.683,246.871,65.463,246.871z"/>
			<path fill="#DDAD8C" d="M63.124,232.972c0.141,0.42-0.131,0.888-0.609,1.044c-0.473,0.165-0.976-0.05-1.111-0.469
				c-0.143-0.419,0.132-0.887,0.608-1.043C62.486,232.349,62.987,232.554,63.124,232.972z"/>
			<path fill="#F1D6E6" d="M73.314,213.713c-0.876-0.391-3.061,2.884-2.602,4.035c0.438,1.12,4.93,3.431,5.361,2.808
				C73.865,218.274,73.768,216.48,73.314,213.713z"/>
			<path opacity="0.102" fill="#FFFFFF" enable-background="new    " d="M114.548,233.146c-5.501-0.35-9.688-5.048-9.343-10.496
				c0.347-5.447,5.094-9.582,10.601-9.23c5.506,0.351,9.688,5.049,9.347,10.497C124.801,229.366,120.055,233.498,114.548,233.146z"
				/>
			<path fill="#F1A37D" d="M-0.438,242.484c-3.144,0.702,5.428,6.023,10.048,6.287c4.621,0.302,17.647-1.433,17.666-4.552
				C16.774,242.25,0.316,240.321-0.438,242.484z"/>
			<path fill="#654B26" d="M77.646,172.522c12.969-9.814,65.382,3.353,85.5-0.819C153.984,170.252,68.446,149.745,77.646,172.522z"
				/>
			<path fill="#FFBF91" d="M76.092,222.222c22.563,24.863,55.417,19.143,67.111,12.271
				C129.771,236.598,101.034,238.83,76.092,222.222z"/>
			<path fill="#F1D6E6" d="M-5.391,207.436c0.657-0.282,1.926,2.943,1.467,3.938c-0.459,1.014-3.953,2.65-4.191,2.008
				C-6.287,211.529-6.009,209.892-5.391,207.436z"/>
			<path opacity="0.2" fill="#FFFFFF" enable-background="new    " d="M23.704,242.114c-1.784-0.116-3.169-1.15-3.1-2.319
				c0.073-1.17,1.579-2.038,3.363-1.93c1.778,0.116,3.167,1.149,3.094,2.319C26.988,241.354,25.488,242.222,23.704,242.114z"/>
			<path fill="#654B26" d="M-8.714,172.172c-7.018-9.338-44.762,3.996-57.618,0.175C-59.885,170.847,1.553,150.027-8.714,172.172z"
				/>
			<path fill="#E2A5A3" d="M6.237,266.053c15.917,5.604,32.095,2.184,40.648-0.8C39.239,274.902,19.95,279.736,6.237,266.053z"/>
			<path fill="#FFBF91" d="M-53.797,218.051c19.712,7.532,30.351,3.869,43.274-0.654C-13.808,223.635-36.98,232.31-53.797,218.051z"
				/>
			<path fill="#EB803A" d="M221.5,193.479"/>
			<path opacity="0.102" enable-background="new    " d="M219.579,253.635c3.021,18.188-11.989,54.854-11.989,54.854l47.964-60.273
				c10.849-54.933,14.582-50.625-8.878-159.544C201.46-14.678,66.34-31.437,20.619,5.791
				C-55.856,28.193-80.864,117.385-60.835,169.911c1.497-15.068,28.558-74.446,39.178-57.049
				c19.716,32.312,51.628,55.859,86.55,57.438c0,0-16.987-5.555-40.434-50.878c0,0,34.156,59.885,158.238,43.179l27.583,80.869
				L219.579,253.635z"/>
			<path fill="#E2A5A3" d="M73.157,212.426c12.964-17.681,37.004-28.168,61.352-33.606
				C133.184,176.324,90.006,172.854,73.157,212.426z"/>
			<path fill="#E2A5A3" d="M-5.03,206.111c-8.515-14.816-24.215-26.903-41.6-20.528C-30.611,186.451-13.667,193.693-5.03,206.111z"
				/>
			<g>
				<g>
					<g>
						<path fill="#231F1F" d="M137.824,197.104c2.124-11.229,14.774-17.175,17.777-18.255c0.243,3.001,0.547,4.317,0.594,6.87
							l8.791-3.685c0.497,6.473,0.069,7.837-0.126,10.469l8.519-2.886c-0.088,10.625-4.387,22.886-11.364,26.473
							c3.919-3.333-9.357-15.672-11.501-22.066C148.428,190.651,142.306,186.013,137.824,197.104z"/>
						<path fill="#231F1F" d="M146.996,202.035c5.292-10.146-0.965-22.641-2.644-25.36c-2.065,2.212-2.846,4.211-4.727,5.049
							l-4.619-8.362c-1.238,3.763-2.759,6.022-5.215,8.752l-3.003-7.709c-0.761,3.108-7.972,8.411-4.717,15.546
							c-0.994-5.01,11.221,5.478,16.844,1.793C142.677,190.398,150.358,190.545,146.996,202.035z"/>
					</g>
					<path fill="#231F1F" d="M126.712,234.287c14.991,3.5,64.64-26.705,30.313-47.096c0,0-61.562-27.106-85.217,29.445
						C71.809,216.637,126.146,234.512,126.712,234.287z"/>
					<path fill="#FFFFFF" d="M71.809,216.637c20.8-39.26,89.291-38.715,90.665-11.17C154.528,241.9,101.198,242.572,71.809,216.637z
						"/>
					<g>
						<g>
							<defs>
								<path id="SVGID_5_" d="M71.809,216.637c20.8-39.26,89.291-38.715,90.665-11.17
									C154.528,241.9,101.198,242.572,71.809,216.637z"/>
							</defs>
							<clipPath id="SVGID_6_">
								<use xlink:href="#SVGID_5_"  overflow="visible"/>
							</clipPath>
							<g clip-path="url(#SVGID_6_)">
								<path fill="#35A9D9" d="M95.615,232.24c-6.368-6.578-6.237-17.056,0.278-23.42c6.476-6.395,16.882-6.297,23.254,0.213
									c6.396,6.561,6.238,17.058-0.271,23.432c-0.761,0.761-1.579,1.463-2.524,2.047L95.615,232.24z"/>
								<path opacity="0.102" fill="#FFFFFF" enable-background="new    " d="M95.142,219.219
									c0.199-7.095,6.071-12.68,13.087-12.484c6.982,0.194,12.499,6.082,12.303,13.157c-0.185,7.096-6.042,12.662-13.01,12.477
									C100.493,232.173,94.961,226.296,95.142,219.219z"/>
								<path opacity="0.102" fill="#FFFFFF" enable-background="new    " d="M105.453,222.445c0.123-4.912,4.251-8.811,9.174-8.675
									c4.939,0.146,8.829,4.23,8.712,9.173c-0.135,4.941-4.27,8.869-9.2,8.732C109.227,231.549,105.312,227.396,105.453,222.445z"
									/>
								<path opacity="0.2" fill="#FFFFFF" enable-background="new    " d="M107.482,213.917c0.088-3.226,2.796-5.79,6.072-5.702
									c3.312,0.098,5.886,2.798,5.808,6.034c-0.077,3.226-2.806,5.779-6.119,5.683
									C109.957,219.833,107.381,217.145,107.482,213.917z"/>
								<path d="M99.465,222.835c0.122-3.781,3.266-6.744,7.018-6.647c3.796,0.108,6.779,3.256,6.662,7.019
									c-0.105,3.801-3.241,6.783-7.033,6.686C102.351,229.775,99.377,226.637,99.465,222.835z"/>
								<path opacity="0.6" fill="#FFFFFF" enable-background="new    " d="M104.416,220.672c0.049-1.881,1.666-3.354,3.602-3.314
									c1.949,0.059,3.472,1.618,3.432,3.499c-0.059,1.921-1.672,3.382-3.621,3.334
									C105.903,224.142,104.368,222.572,104.416,220.672z"/>
							</g>
						</g>
					</g>
				</g>
				<g>
					<g>
						<path fill="#231F1F" d="M-41.253,197.298c-0.137-7.641-7.813-13.001-9.67-14.072c-0.512,1.958-0.848,2.787-1.16,4.482
							l-5.399-3.44c-1.067,4.23-0.936,5.176-1.087,6.93l-5.306-2.865c-1.141,7.018,0.296,15.604,4.487,18.752
							c-2.182-2.631,7.963-9.297,10.094-13.265C-47.521,191.832-42.978,189.463-41.253,197.298z"/>
						<path fill="#231F1F" d="M-47.858,199.521c-2.348-7.29,3.193-14.844,4.611-16.451c1.096,1.695,1.395,3.118,2.535,3.878
							l4.01-4.989c0.371,2.612,1.141,4.269,2.437,6.335l2.856-4.737c0.155,2.145,4.316,6.453,1.363,10.79
							c1.209-3.207-8.04,2.368-11.353-0.711C-43.706,192.347-48.768,191.549-47.858,199.521z"/>
					</g>
					<path fill="#231F1F" d="M-52.847,187.338c0,0,44.751-6.9,50.678,30.673l-3.24,3.168l-36.112,1.93
						C-41.53,223.128-79.092,205.019-52.847,187.338z"/>
					<path fill="#FFFFFF" d="M-2.169,218.011c-15.136,18.772-62.334,5.342-53.163-21.151
						C-48.867,181.841-7.208,194.745-2.169,218.011z"/>
					<g>
						<g>
							<defs>
								<path id="SVGID_7_" d="M-2.169,218.011c-15.136,18.772-62.334,5.342-53.163-21.151
									C-48.867,181.841-7.208,194.745-2.169,218.011z"/>
							</defs>
							<clipPath id="SVGID_8_">
								<use xlink:href="#SVGID_7_"  overflow="visible"/>
							</clipPath>
							<g clip-path="url(#SVGID_8_)">
								<path fill="#35A9D9" d="M-35.971,227.085c-5.398-5.809-5.112-14.951,0.687-20.429c5.79-5.478,14.855-5.195,20.283,0.624
									c5.009,5.39,5.165,13.742,0.345,19.356L-35.971,227.085z"/>
								<path opacity="0.102" fill="#FFFFFF" enable-background="new    " d="M-29.479,222.972
									c-4.767-0.683-8.085-5.049-7.418-9.747c0.672-4.707,5.073-7.972,9.84-7.289c4.766,0.682,8.085,5.038,7.413,9.746
									C-20.312,220.38-24.718,223.645-29.479,222.972z"/>
								<path opacity="0.102" fill="#FFFFFF" enable-background="new    " d="M-24.227,210.847c3.363,0,6.093,2.729,6.093,6.082
									c0,3.372-2.73,6.092-6.093,6.092c-3.362,0-6.086-2.72-6.086-6.092C-30.313,213.576-27.589,210.847-24.227,210.847z"/>
								<path opacity="0.2" fill="#FFFFFF" enable-background="new    " d="M-23.086,211.286c0.289-2.115,2.295-3.559,4.489-3.246
									c2.169,0.312,3.693,2.261,3.397,4.366c-0.292,2.144-2.315,3.598-4.483,3.275C-21.867,215.369-23.379,213.381-23.086,211.286
									z"/>
								<path d="M-30.82,216.987c0.458-3.139,3.373-5.322,6.517-4.863c3.124,0.448,5.278,3.343,4.829,6.48
									c-0.448,3.158-3.323,5.322-6.466,4.864C-29.084,223.041-31.274,220.136-30.82,216.987z"/>
								<path opacity="0.6" fill="#FFFFFF" enable-background="new    " d="M-22.648,214.629c1.708,0,3.096,1.384,3.096,3.1
									c0,1.695-1.389,3.079-3.096,3.079c-1.71,0-3.094-1.384-3.094-3.079C-25.742,216.013-24.358,214.629-22.648,214.629z"/>
							</g>
						</g>
					</g>
				</g>
				<path fill="#231F1F" d="M127.394,234.229"/>
			</g>
			<path fill="#755730" d="M215.506,63.301c0,0,77.797,115.226,47.057,200.929C262.562,264.229,284.296,205.136,215.506,63.301z"/>
			<path fill="#62401F" d="M219.424,248.82c3.021,18.187-13.899,65.79-13.899,65.79l51.501-65.186
				c10.859-54.933,12.944-56.648-10.525-165.578C201.293-19.498,66.16-36.248,20.429,0.971
				C-56.025,23.368-91.743,111.294-71.703,163.81c1.486-15.068,39.255-73.179,49.855-55.772
				c19.731,32.303,51.647,55.86,86.56,57.429c0,0-16.997-5.556-40.429-50.878c0,0,34.162,59.903,158.239,43.179l27.582,80.878
				L219.424,248.82z"/>
			<path fill="#8B6339" d="M183.477,143.546C134.743,155.816,62.665,156.538,39.97,97.863
				C66.56,148.448,138.019,150.417,183.477,143.546z"/>
		</g>
		<path fill="#D3282D" d="M4.799,366.229l21.609,8.665c1.106-8.801,2.285-20.478,3.601-25.43l-9.858-20.643
			C18.123,334.318,6.943,350.723,4.799,366.229z"/>
		<path fill="#F8BF8F" d="M129.345,333.891l42.884,63.84l14.289,71.288l13.471,1.882c0,0,6.169-33.149-8.578-74.671
			c-14.727-41.521-53.567-69.513-53.567-69.513L129.345,333.891z"/>
		<path fill="#FFFFFF" d="M161.605,438.706c-1.188,4.562-2.34,9.104-3.586,13.646c-0.099,0.302-0.859,0.595-1.327,0.614
			c-4.658,0.166-9.336,0.39-13.996,0.302c-1.268-0.019-3.129-0.712-3.635-1.696c-0.926-1.733,0.653-2.865,2.183-3.655
			c6.424-3.343,12.846-6.695,19.27-10.028C160.865,438.181,161.234,438.433,161.605,438.706z"/>
		<path fill="#FFFFFF" d="M150.942,472.878c-3.558-1.812-6.666-3.1-9.455-4.883c-0.955-0.614-1.149-2.427-1.812-3.968
			c3.284-0.038,5.77-0.019,8.245-0.165c0.663-0.039,1.297-0.575,1.949-0.877c-0.526-0.557-0.975-1.413-1.617-1.628
			c-1.657-0.545-3.412-1.11-5.128-1.15c-2.846-0.077-3.946-1.462-3.958-4.093c0-0.731-0.154-1.453-0.271-2.652
			c7.379,1.053,14.581,2.086,22.223,3.179C157.708,462.079,154.336,467.47,150.942,472.878z"/>
		<path fill="#F1142B" d="M146.361,481.553c-22.613-88.081,25.088-146.191-4.854-158.229c-23.294-9.357-115.191-9.746-120.22,6.297
			c-9.679,19.162,14.951,99.515,4.352,139.124c0,0-8.744,30.586-6.647,52.009c0,0,100.693,1.033,131.97-5.478L146.361,481.553z"/>
		<path fill="#1D71B1" d="M66.16,567.052l50.397,140.508l12.027,0.4c0.779-9.62,26.237-174.048,20.604-198.161
			c0,0-85.372,11.325-131.177,3.859c0,0-4.6,10.01,36.311,185.616h5.639l14.007-110.431"/>
		<path opacity="0.102" enable-background="new    " d="M115.875,513.425l3.021,192.243l9.939,0.205
			c12.984-65.332,25.195-183.783,20.353-196.074"/>
		<path fill="#535352" d="M16.997,513.99c29.26,17.163,103.671,29.064,133.964,1.286l-1.772-15.087c0,0-54.981,35.359-129.969-1.365
			"/>
		<path fill="#414141" d="M26.029,506.815c1.246,0,2.255,1.015,2.255,2.262c0,1.248-1.009,2.263-2.255,2.263
			c-1.249,0-2.258-1.015-2.258-2.263C23.771,507.83,24.781,506.815,26.029,506.815z"/>
		<path fill="#414141" d="M42.675,514.506c1.249,0,2.257,1.005,2.257,2.252c0,1.248-1.008,2.261-2.257,2.261
			c-1.247,0-2.255-1.013-2.255-2.261C40.419,515.511,41.428,514.506,42.675,514.506z"/>
		<circle fill="#414141" cx="34.112" cy="513.152" r="2.261"/>
		<g>
			<path fill="#414141" d="M50.658,519.555c-0.477,5.391,2.656,10.088,6.989,10.479l15.321,1.385
				c4.342,0.389,8.242-3.685,8.714-9.104c0.497-5.382-2.627-10.118-6.969-10.488l-15.297-1.384
				C55.062,510.071,51.16,514.136,50.658,519.555z M57.597,520.15c0.258-3.002,2.433-5.245,4.82-5.049l8.494,0.779
				c2.403,0.215,4.123,2.797,3.869,5.799c-0.278,2.992-2.442,5.254-4.829,5.039l-8.485-0.741
				C59.065,525.744,57.314,523.151,57.597,520.15z"/>
			<path fill="#414141" d="M64.133,521.095c-0.058,0.712,0.502,1.374,1.228,1.424l8.855,0.73c0.726,0.089,1.363-0.477,1.427-1.198
				l0,0c0.068-0.712-0.482-1.395-1.198-1.433l-8.874-0.751C64.864,519.799,64.215,520.385,64.133,521.095L64.133,521.095z"/>
		</g>
		<g>
			<path fill="#535352" d="M27.237,709.568c4.468,0.428,16.315,0.624,22.467-2.058c0,0,15.038,0.479,15.418-1.55
				c1.579-8.361-0.448-13.762-0.448-13.762l5.926-41.561H40.511l9.193,42.554c-4.353,2.311-18.983,8.578-22.467,10.984
				C27.237,704.168,24,709.256,27.237,709.568z"/>
			<path fill="#404041" d="M66.96,654.519c0,0.761-0.62,1.363-1.371,1.363h-2.246c-0.746,0-1.365-0.603-1.365-1.363l0,0
				c0-0.751,0.62-1.365,1.365-1.365h2.246C66.331,653.174,66.96,653.768,66.96,654.519L66.96,654.519z"/>
			<path fill="#404041" d="M66.96,657.561c0,0.74-0.62,1.354-1.371,1.354h-2.246c-0.746,0-1.365-0.613-1.365-1.354l0,0
				c0-0.752,0.62-1.365,1.365-1.365h2.246C66.331,656.195,66.96,656.809,66.96,657.561L66.96,657.561z"/>
		</g>
		<g>
			<path fill="#535352" d="M86.617,712.219c3.545-2.983,21.201-10.02,26.06-12.378l-14.479-42.827l39.547-1.453l-8.588,43.772
				c0,0,2.009,6.033-0.038,15.128c-0.517,2.212-16.998,1.13-16.998,1.13c-6.866,2.7-19.961,3.841-24.802,2.886
				C87.34,718.456,83.485,714.83,86.617,712.219z"/>
			<path fill="#404041" d="M133.359,659.547c-0.029,1.014-0.897,1.824-1.909,1.783l-3.062-0.105
				c-1.032-0.04-1.833-0.897-1.793-1.921l0,0c0.029-1.042,0.896-1.843,1.91-1.794l3.07,0.109
				C132.6,657.657,133.398,658.514,133.359,659.547L133.359,659.547z"/>
			<path fill="#404041" d="M133.223,663.66c-0.039,1.032-0.896,1.843-1.93,1.793l-3.06-0.116c-1.034-0.019-1.833-0.896-1.795-1.91
				l0,0c0.04-1.015,0.897-1.833,1.921-1.793l3.07,0.117C132.462,661.779,133.243,662.637,133.223,663.66L133.223,663.66z"/>
		</g>
		<path fill="#4B8192" d="M-42.92,53.613c178.054-28.753,245.578,55.693,260.297,138.647
			c16.49-61.647-56.746-193.375-232.398-172.146c-14.984,0.36-43.007,29.386-37.56,37.982L-42.92,53.613z"/>
		<g>
			<path fill="#31B4C6" d="M194.646,97.464c5.243-3.929,10.536-11.492,8.208-25.849c-3.608-22.418-22.651-9.737-20.089,15.994
				c-3.539-6.998-9.366-13.371-18.411-9.648c-13.967,5.762-4.767,29.825,10.701,28.91c-3.44,3.762-5.926,9.94-4.151,20.115
				c3.245,18.666,17.952,12.019,18.664-6.92c3.11,6.726,8.256,12.33,16.734,11.268C223.322,129.17,214.345,96.712,194.646,97.464z"
				/>
			<path fill="#4B8192" d="M190.339,98.282c2.633-1.959,5.264-5.722,4.094-12.895c-1.812-11.219-11.307-4.815-10,8.051
				c-1.755-3.519-4.679-6.774-9.221-4.894c-6.979,2.885-2.377,14.912,5.343,14.444c-1.717,1.882-2.944,4.972-2.068,10.039
				c1.618,9.338,8.938,5.966,9.298-3.519c1.541,3.383,4.113,6.219,8.374,5.683C204.647,114.12,200.164,97.911,190.339,98.282z"/>
			<path fill="#FFFFFF" d="M184.54,98.468c1.539,0,2.787,1.248,2.787,2.777c0,1.54-1.248,2.788-2.787,2.788
				c-1.531,0-2.777-1.248-2.777-2.788C181.763,99.716,183.009,98.468,184.54,98.468z"/>
		</g>
		<g>
			<path fill="#FFCBA5" d="M212.249,169.862l-2.876,67.866c4.513,0.839,38.18-34.074,33.617-56.044
				C239.949,166.986,226.559,156.538,212.249,169.862z"/>
			<path opacity="0.502" fill="#DDAD8C" enable-background="new    " d="M213.204,174.511c8.909-8.109,19.356-5.536,22.515,0.614
				c3.393,5.906,0.175,15.702-1.521,18.606c-1.677,2.904-6.197-3.353-8.586-1.209c-2.378,2.146-3.363,16.2-5.731,14.056
				C217.902,196.753,215.154,184.308,213.204,174.511z"/>
		</g>
		<path fill="#D3282D" d="M147.961,327.924c-7.136-11.637-28.424-5.224-23.569,11.143c5.655,6.285,21.618,23.811,34.797,40.945
			l20.565-12.146C167.688,350.03,154.821,334.134,147.961,327.924z"/>
		<path fill="#FFCBA5" d="M97.607,319.016l-9.103-0.916l-4.548-19.444l-20.053,1.657l0.068,19.814l-5.629,0.625
			c0,0,1.102,15.778,19.635,14.084C96.502,333.159,97.607,319.016,97.607,319.016z"/>
	</g>
	<g>
		<path fill="#FFCBA5" d="M-282.163,342.866c9.668,1.121,89.377,88.375,91.759,120.831c2.389,32.446-67.978,66.676-77.407,73.821
			l-17.408-7.467c3.621-8.83,67.691-44.074,68.486-70.137c0.798-26.054-59.125-76.999-63.705-86.22L-282.163,342.866z"/>
		<path fill="#784694" d="M-259.8,395.489c-11.753-12.369-22.623-22.33-24.421-25.946l-1.606-31.579
			c4.209,0.487,22.286,18.128,40.96,39.738C-250.127,380.187-257.364,385.372-259.8,395.489z"/>
		<g>
			<path fill="#3195A8" d="M-265.536,514.506"/>
			<path fill="#3195A8" d="M-255.058,519.74l-28.085,0.448l-77.876,2.808l-47.589-16.998c-6.448,30-13.026,36.102,0.638,100.215
				c15.8,80.196,20.981,94.194,21.438,100.197l8.924-0.312l39.094-109.943l-1.667,4.756l21.058,96.473h5.55l53.544-173.667"/>
		</g>
		<g>
			<path fill="#3DABBA" d="M-322.296,521.202L-322.296,521.202l-86.292-15.595c-6.448,29.98-13.037,36.103,0.638,100.235
				c15.8,80.177,20.97,94.192,21.438,100.197l8.924-0.332l39.092-109.924l-1.667,4.747l26.888-71.551"/>
		</g>
		<g>
			<path opacity="0.102" enable-background="new    " d="M-346.532,607.655"/>
			<path opacity="0.102" enable-background="new    " d="M-386.825,517.528l-21.476-11.512
				c-5.96,29.981-11.326,39.718,0.599,100.196c14.65,80.196,19.42,94.202,19.838,100.197l8.287-0.292
				C-379.577,706.099-396.043,656.604-386.825,517.528z"/>
		</g>
		<path fill="#765B9E" d="M-402.989,350.206c3.86-11.082,102.219-22.573,118.15-12.076l7.884,82.896l15.02,145.919
			c-38.115,35.683-135.965,17.3-169.1,1.695c0,0,6.276-45.274,12.437-81.863L-402.989,350.206z"/>
		<path fill="#784694" d="M-324.951,334.26c4.887-0.799,23.113,0.098,23.113,0.098c-4.698,28.597-23.894,45.02-23.894,45.02
			c-31.544-9.717-46.487-39.922-46.487-39.922s16.507-3.411,18.485-3.168"/>
		<path fill="#9B87BA" d="M-357.267,320.342"/>
		<path fill="#535352" d="M-376.064,718.729"/>
		<path fill="#535352" d="M-349.465,722.745"/>
		<path fill="#535352" d="M-348.466,726.021c-3.713-3.354-22.447-11.58-27.598-14.329l17.208-45.536l-42.54-3.06l7.616,47.446
			c0,0-2.407,6.414-0.53,16.298c0.453,2.377,18.245,1.842,18.245,1.842c7.275,3.167,21.341,4.884,26.599,4.024
			C-349.465,732.706-345.172,728.982-348.466,726.021z"/>
		<path fill="#535352" d="M-282.763,722.482c-4.933,0.468-17.955,0.692-24.743-2.252c0,0-16.56,0.518-16.978-1.733
			c-1.737-9.183,0.492-15.137,0.492-15.137l-6.531-45.762l31.75,3.04l-8.733,43.821c4.791,2.535,20.907,9.436,24.743,12.065
			C-282.763,716.525-279.21,722.141-282.763,722.482z"/>
		<path d="M-252.013,329.952"/>
		<path fill="#765B9E" d="M-285.21,350.206c-1.169,11.402,18.817,38.46,7.038,63.879"/>
		<g>
			<path fill="#A97B55" d="M-243.908,334.728l3.231-19.708l3.094,19.767l20.192-90.8l-212.378,1.393l-1.895,85.042
				C-431.664,330.439-375.644,316.794-243.908,334.728z"/>
			<path fill="#DCAC8B" d="M-225.915,283.031c0.711,0,1.287,0.565,1.287,1.286c0,0.702-0.576,1.286-1.287,1.286
				c-0.712,0-1.286-0.584-1.286-1.286C-227.201,283.597-226.627,283.031-225.915,283.031z"/>
			<path fill="#FFCBA5" d="M-209.298,249.151c-1.915,38.577-17.476,63.412-56.349,78.199
				c-77.151,15.419-142.026-15.322-168.424-33.793c-40.98-32.594-41.828-112.028-20.211-167.332
				c65.144-16.199,110.256-49.25,195.423-48.636c40.075,20.702,54.533,61.677,59.782,102.496
				C-195.9,207.951-206.421,227.523-209.298,249.151z"/>
			<path fill="#DCAC8B" d="M-236.983,259.757c0.327,0,0.59,0.271,0.59,0.593c0,0.323-0.263,0.586-0.59,0.586s-0.59-0.263-0.59-0.586
				C-237.573,260.028-237.31,259.757-236.983,259.757z"/>
			<circle fill="#DCAC8B" cx="-241.744" cy="264.96" r="1.287"/>
			<ellipse fill="#DCAC8B" cx="-239.706" cy="276.238" rx="0.697" ry="0.829"/>
			<path fill="#DCAC8B" d="M-304.782,265.399c0.322,0,0.581,0.263,0.581,0.575c0,0.322-0.259,0.585-0.581,0.585
				s-0.58-0.263-0.58-0.585C-305.361,265.662-305.104,265.399-304.782,265.399z"/>
			<path fill="#DCAC8B" d="M-305.604,260.36c-0.278,0.654-1.079,0.937-1.79,0.644c-0.711-0.312-1.056-1.082-0.778-1.735
				c0.278-0.662,1.076-0.936,1.787-0.644C-305.674,258.938-305.326,259.707-305.604,260.36z"/>
			<path fill="#DCAC8B" d="M-321.283,271.744c-0.307,0.703-1.08,1.053-1.734,0.771c-0.652-0.283-0.936-1.082-0.629-1.794
				c0.303-0.712,1.082-1.053,1.734-0.77C-321.258,270.233-320.977,271.043-321.283,271.744z"/>
			<path fill="#DCAC8B" d="M-317.953,258.255c-0.152,0.361-0.605,0.507-1.02,0.332c-0.41-0.176-0.618-0.605-0.468-0.956
				c0.146-0.351,0.605-0.506,1.015-0.331C-318.012,257.476-317.803,257.904-317.953,258.255z"/>
			<path fill="#F0A27D" d="M-261.003,271.696c2.86,0.886-5.424,5.155-9.665,5.077c-4.284-0.087-16.086-2.651-15.867-5.507
				C-276.785,270.205-261.535,269.659-261.003,271.696z"/>
			<path opacity="0.2" fill="#FFFFFF" enable-background="new    " d="M-282.938,265.525c1.623,0.041,2.913,0.947,2.895,2.037
				c-0.02,1.092-1.356,1.949-2.973,1.921c-1.623-0.039-2.914-0.945-2.896-2.037C-285.892,266.355-284.558,265.497-282.938,265.525z"
				/>
			<path fill="#F0A27D" d="M-267.393,292.543l-3.553,5.167c-6.968,1.871-52.189,8.85-58.228-10.001
				C-320.114,297.632-276.136,294.824-267.393,292.543z"/>
			<path opacity="0.102" enable-background="new    " d="M-194.564,199.502c-6.62-16.355-10.143-29.231-25.99-44.192
				c-26.097,31.609-111.635,38.51-149.501,42.33c-14.104,9.99-54.093,12.906-54.274,25.645l-4.021,116.229
				c-9.445-7.622-8.075-4.259-16.52-14.201l-1.517-115.118l118.661-68.549l111.953-1.54l22.617,44.835L-194.564,199.502z"/>
			<path fill="#231F1F" d="M-375.874,255.74"/>
			<g>
				<path fill="#6F3B1F" d="M-323.095,202.26c-11.229-9.941-60.397-1.754-78.598-7.075
					C-393.14,194.53-313.008,182.035-323.095,202.26z"/>
				<path fill="#6F3B1F" d="M-243.61,208.499c7.148-8.101,40.95,7.007,53.056,4.415C-196.402,211.08-251.446,187.288-243.61,208.499
					z"/>
			</g>
			<path fill="#FAF6DA" d="M-200.403,208.946c-0.298-14.045-13.694-51.199-32.076-55.702
				c-18.686,28.977-117.117,40.254-133.463,40.146c10.108-7.709,16.809-18.392,20.961-29.756
				c-19.474,22.427-56.863,48.236-81.795,54.582l-3.153,124.183c-35.2-12.914-42.168-54.133-46.589-68.899
				c-49.663,83.822-162.526,49.649-157.025-14.19c64.125,63.091,99.636-81.259,94.896-157.216
				C-540.574,55.425-485.392-4.39-438.033-18.279c47.339-13.874,130.338,0.278,142.936,39.806l43.002,29.571
				C-182.948,77.481-177.965,161.802-200.403,208.946z"/>
			<path fill="#E65069" d="M-258.953,48.817c-75.892-6.9-203.004,27.115-213.701,103.14
				c-19.543-69.075,74.742-143.633,177.53-130.431c13.388,1.716,49.636,23.071,44.996,31.053L-258.953,48.817z"/>
			<path fill="#EBE0AF" d="M-350.103,188.527c57.656-4.757,135.976-27.009,136.985-85.625
				C-221.563,155.681-298.153,180.115-350.103,188.527z"/>
			<path fill="#EBE0AF" d="M-348.018,187.494c46.502-4.912,109.719-27.447,110.713-86.064
				C-244.268,154.219-306.086,178.926-348.018,187.494z"/>
			<path fill="#FFCBA5" d="M-469.949,191.139l-1.16,67.936c-5.667,2.241-36.302-15.479-35.791-45.069
				C-506.568,194.248-491.757,177.416-469.949,191.139z"/>
			<path fill="#3195A8" d="M-483.526,240.067c3.298,0.059,5.931,2.672,5.872,5.829c-0.053,3.157-2.778,5.682-6.077,5.623
				c-3.304-0.059-5.93-2.671-5.877-5.838C-489.55,242.524-486.825,240.009-483.526,240.067z"/>
			<path opacity="0.502" fill="#DCAC8B" enable-background="new    " d="M-469.939,197.338c-13.636-8.304-26.672-2.417-29.274,6.354
				c-2.973,8.52,3.684,20.449,6.6,23.812c2.924,3.362,7.275-5.896,10.934-3.694c3.655,2.193,8.416,20.216,11,16.824
				C-470.56,227.378-470.062,210.574-469.939,197.338z"/>
			<g>
				<path fill="#417BB4" d="M-347.12,252.641c6.787-6.414,7.158-17.115,0.769-23.938c-6.325-6.823-16.969-7.174-23.763-0.799
					c-6.788,6.403-7.139,17.115-0.77,23.938c0.75,0.799,1.568,1.55,2.486,2.183L-347.12,252.641z"/>
				<path fill="#E8CCE0" d="M-324.065,234.863c0.848-0.312,2.646,2.943,2.138,3.967c-0.539,1.043-4.863,2.864-5.2,2.231
					C-324.922,239.073-324.684,237.397-324.065,234.863z"/>
				<path opacity="0.102" fill="#FFFFFF" enable-background="new    " d="M-358.822,226.091c7.169,0.116,12.875,6.082,12.749,13.313
					c-0.126,7.232-6.033,13.002-13.202,12.866c-7.165-0.117-12.87-6.081-12.745-13.314
					C-371.897,231.724-365.987,225.974-358.822,226.091z"/>
				<path opacity="0.102" fill="#FFFFFF" enable-background="new    " d="M-356.721,242.222c0.083-5.068-3.953-9.201-8.982-9.279
					c-5.047-0.106-9.229,3.908-9.323,8.958c-0.076,5.048,3.953,9.239,9.016,9.327C-360.981,251.306-356.809,247.28-356.721,242.222z
					"/>
				<path opacity="0.2" fill="#FFFFFF" enable-background="new    " d="M-358.408,233.392c0.059-3.305-2.611-6.033-5.96-6.092
					c-3.392-0.059-6.135,2.592-6.194,5.887c-0.064,3.313,2.603,6.043,5.975,6.092C-361.209,239.346-358.446,236.705-358.408,233.392
					z"/>
				<path fill="#F6B17B" d="M-326.609,242.952c-22.116,21.697-51.95,14.533-62.311,7.496
					C-376.722,253.187-350.445,256.891-326.609,242.952z"/>
				<path opacity="0.102" fill="#FFFFFF" enable-background="new    " d="M-227.748,231.422c4.922,0.088,8.84,4.084,8.758,8.947
					c-0.088,4.854-4.144,8.724-9.065,8.626c-4.922-0.077-8.846-4.083-8.758-8.937C-236.729,235.193-232.669,231.334-227.748,231.422
					z"/>
				<path opacity="0.102" fill="#FFFFFF" enable-background="new    " d="M-226.193,242.191c0.048-3.439-2.675-6.266-6.108-6.335
					c-3.445-0.058-6.261,2.69-6.329,6.122c-0.049,3.411,2.676,6.257,6.095,6.335C-229.087,248.372-226.251,245.604-226.193,242.191z
					"/>
				<path opacity="0.2" fill="#FFFFFF" enable-background="new    " d="M-236.676,232.231c2.252,0.039,4.039,1.843,4.006,4.016
					c-0.035,2.184-1.892,3.918-4.138,3.879c-2.251-0.039-4.044-1.832-4.006-4.016C-240.773,233.937-238.922,232.202-236.676,232.231
					z"/>
				<path d="M-231.632,237.24c3.235,0,5.857,2.633,5.857,5.868s-2.622,5.849-5.857,5.849c-3.237,0-5.857-2.613-5.857-5.849
					S-234.869,237.24-231.632,237.24z"/>
				<path d="M-357.638,235.76c3.865,0,6.994,3.138,6.994,6.997c0,3.869-3.129,6.998-6.994,6.998c-3.864,0-6.998-3.129-6.998-6.998
					C-364.636,238.897-361.502,235.76-357.638,235.76z"/>
				<path fill="#F6B17B" d="M-218.136,251.491c-19.197,2.943-28.096-2.359-38.877-8.919
					C-255.249,248.801-236.003,261.004-218.136,251.491z"/>
				<path opacity="0.6" fill="#FFFFFF" enable-background="new    " d="M-234.138,239.463c1.74,0,3.153,1.423,3.153,3.159
					c0,1.744-1.413,3.157-3.153,3.157c-1.743,0-3.152-1.413-3.152-3.157C-237.29,240.886-235.881,239.463-234.138,239.463z"/>
				<path opacity="0.6" fill="#FFFFFF" enable-background="new    " d="M-355.562,240.419c0.029-1.91-1.58-3.51-3.553-3.528
					c-1.989-0.04-3.636,1.49-3.674,3.392c-0.02,1.968,1.579,3.548,3.562,3.587C-357.258,243.908-355.601,242.367-355.562,240.419z"
					/>
				<path fill="#231F1F" d="M-219.394,231.958c4.761-9.143,18.562-9.648,24.143-14.016c-0.391,2.339-1.561,4.708-2.617,5.917
					l6.938-0.264c-0.881,2.572-3.396,4.786-4.882,6.072l4.132-0.098c-0.619,2.759-7.562,8.528-14.741,9.912
					c4.332-1.91,5.706-4.844,5.399-10.857C-202.05,225.253-212.559,223.498-219.394,231.958z"/>
				<path fill="#231F1F" d="M-374.825,224.609c-6.877-16.491-29.841-18.831-38.667-27.048c0.391,4.123,2.076,8.412,3.676,10.615
					l-11.551-1.189c1.181,4.562,5.142,8.714,7.466,11.102l-6.905-0.614c0.74,4.912,11.647,15.73,23.456,18.948
					c-7.009-3.841-8.963-9.123-7.759-19.571C-402.979,211.08-385.255,209.092-374.825,224.609z"/>
				<path fill="#231F1F" d="M-205.842,221.179c0,0-39.445-12.738-50.235,20.331l2.467,3.353l32.33,6.979
					C-221.28,251.86-184.735,240.964-205.842,221.179z"/>
				<path fill="#231F1F" d="M-373.807,252.426c-13.694,2.555-57.371-26.726-25.532-43.781c0,0,56.74-22.048,75.873,30.019
					C-323.475,238.663-373.31,252.66-373.807,252.426z"/>
				<path fill="#FFFFFF" d="M-322.798,238.811c-17.456-36.775-80.181-39.056-82.579-13.909
					C-399.559,258.587-350.761,261.355-322.798,238.811z"/>
				<g>
					<g>
						<defs>
							<path id="SVGID_9_" d="M-322.798,238.811c-17.456-36.775-80.181-39.056-82.579-13.909
								C-399.559,258.587-350.761,261.355-322.798,238.811z"/>
						</defs>
						<clipPath id="SVGID_10_">
							<use xlink:href="#SVGID_9_"  overflow="visible"/>
						</clipPath>
						<g clip-path="url(#SVGID_10_)">
							<path fill="#3591C8" d="M-345.245,252.124c6.091-5.75,6.41-15.351,0.713-21.452c-5.684-6.121-15.211-6.434-21.312-0.721
								c-6.088,5.73-6.409,15.341-0.688,21.462c0.667,0.722,1.398,1.384,2.217,1.959L-345.245,252.124z"/>
							<path opacity="0.102" fill="#FFFFFF" enable-background="new    " d="M-355.741,228.323
								c6.417,0.106,11.534,5.447,11.426,11.939c-0.112,6.491-5.404,11.656-11.821,11.559c-6.424-0.115-11.542-5.458-11.434-11.948
								C-367.458,233.381-362.165,228.216-355.741,228.323z"/>
							<path opacity="0.102" fill="#FFFFFF" enable-background="new    " d="M-362.028,234.435c4.527,0,8.203,3.684,8.203,8.206
								c0,4.533-3.675,8.207-8.203,8.207c-4.533,0-8.208-3.674-8.208-8.207C-370.236,238.118-366.561,234.435-362.028,234.435z"/>
							<path opacity="0.2" fill="#FFFFFF" enable-background="new    " d="M-355.343,234.863c0.049-2.964-2.325-5.399-5.352-5.458
								c-3.035-0.059-5.506,2.31-5.55,5.282c-0.059,2.952,2.339,5.399,5.371,5.449C-357.837,240.185-355.39,237.826-355.343,234.863
								z"/>
							<path d="M-348.398,243.382c0.059-3.47-2.685-6.335-6.126-6.394c-3.494-0.059-6.349,2.709-6.398,6.179
								c-0.058,3.451,2.696,6.316,6.17,6.375C-351.292,249.601-348.457,246.852-348.398,243.382z"/>
							<path opacity="0.6" fill="#FFFFFF" enable-background="new    " d="M-352.229,241.043c0.029-1.716-1.407-3.129-3.162-3.158
								c-1.789-0.039-3.257,1.335-3.295,3.051c-0.021,1.764,1.409,3.168,3.172,3.196
								C-353.734,244.161-352.258,242.797-352.229,241.043z"/>
						</g>
					</g>
				</g>
				<path fill="#FFFFFF" d="M-256.155,241.549c10.96,19.201,55.629,13.898,51.17-11.414
					C-208.658,215.623-248.221,221.237-256.155,241.549z"/>
				<g>
					<g>
						<defs>
							<path id="SVGID_11_" d="M-256.155,241.549c10.96,19.201,55.629,13.898,51.17-11.414
								C-208.658,215.623-248.221,221.237-256.155,241.549z"/>
						</defs>
						<clipPath id="SVGID_12_">
							<use xlink:href="#SVGID_11_"  overflow="visible"/>
						</clipPath>
						<g clip-path="url(#SVGID_12_)">
							<path fill="#3591C8" d="M-226.891,254.679c5.728-4.455,6.784-12.778,2.345-18.568c-4.43-5.79-12.695-6.861-18.446-2.397
								c-5.34,4.152-6.667,11.696-3.144,17.466L-226.891,254.679z"/>
							<path opacity="0.102" fill="#FFFFFF" enable-background="new    " d="M-231.862,234.308c4.415,0.078,7.935,3.674,7.857,8.021
								c-0.073,4.355-3.714,7.817-8.129,7.748c-4.416-0.078-7.934-3.675-7.855-8.021
								C-239.916,237.709-236.276,234.239-231.862,234.308z"/>
							<circle opacity="0.102" fill="#FFFFFF" enable-background="new    " cx="-236.056" cy="243.791" r="5.575"/>
							<path opacity="0.2" fill="#FFFFFF" enable-background="new    " d="M-239.843,234.961c2.018,0.028,3.63,1.637,3.597,3.577
								c-0.029,1.939-1.692,3.499-3.708,3.46c-2.018-0.03-3.626-1.638-3.597-3.577
								C-243.519,236.481-241.861,234.922-239.843,234.961z"/>
							<path d="M-235.345,239.444c2.904,0,5.258,2.348,5.258,5.253c0,2.904-2.354,5.264-5.258,5.264
								c-2.904,0-5.258-2.359-5.258-5.264C-240.603,241.792-238.25,239.444-235.345,239.444z"/>
							<path opacity="0.6" fill="#FFFFFF" enable-background="new    " d="M-236.097,240.243c1.559,0,2.828,1.257,2.828,2.817
								c0,1.568-1.269,2.825-2.828,2.825c-1.559,0-2.82-1.257-2.82-2.825C-238.917,241.5-237.655,240.243-236.097,240.243z"/>
						</g>
					</g>
				</g>
				<path fill="#E8CCE0" d="M-255.201,238.625c-0.555-0.39-2.285,2.301-2.041,3.314c0.199,0.954,3.032,3.118,3.372,2.573
					C-255.19,242.505-255.107,240.984-255.201,238.625z"/>
				<path fill="#E8CCE0" d="M-322.754,235.447c0.839-0.312,2.631,2.934,2.125,3.977c-0.532,1.044-4.854,2.866-5.2,2.223
					C-323.626,239.679-323.383,237.981-322.754,235.447z"/>
			</g>
		</g>
		<path fill="#FFCBA5" d="M-304.732,335.293l-16.648-1.111l-0.371-9.143h-33.521l0.219,12.164l-13.334,2.535
			c0,0,15.293,24.893,40.911,32.544C-327.477,372.272-312.734,358.568-304.732,335.293z"/>
		<path fill="#414141" d="M-326.498,666.292c0,0.829,0.678,1.501,1.497,1.501h2.465c0.828,0,1.506-0.672,1.506-1.501l0,0
			c0-0.818-0.678-1.482-1.506-1.482H-325C-325.82,664.81-326.498,665.474-326.498,666.292L-326.498,666.292z"/>
		<path fill="#414141" d="M-326.498,669.635c0,0.84,0.678,1.491,1.497,1.491h2.465c0.828,0,1.506-0.651,1.506-1.491l0,0
			c0-0.818-0.678-1.471-1.506-1.471H-325C-325.82,668.164-326.498,668.816-326.498,669.635L-326.498,669.635z"/>
		<path fill="#414141" d="M-397.97,667.57c0,1.12,0.917,2.035,2.038,2.035h3.363c1.125,0,2.047-0.915,2.047-2.035l0,0
			c0-1.123-0.921-2.047-2.047-2.047h-3.363C-397.063,665.523-397.97,666.447-397.97,667.57L-397.97,667.57z"/>
		<path fill="#414141" d="M-397.97,672.111c0,1.12,0.917,2.036,2.038,2.036h3.363c1.125,0,2.047-0.916,2.047-2.036l0,0
			c0-1.131-0.921-2.047-2.047-2.047h-3.363C-397.063,670.064-397.97,670.98-397.97,672.111L-397.97,672.111z"/>
		<path fill="#535352" d="M-423.359,502.977c33.144,21.715,120.844,37.855,157.824,7.173l-1.53-14.464
			c0,0-67.457,36.862-152.843-10.264"/>
		<circle fill="#414141" cx="-374.445" cy="511.767" r="2.963"/>
		<path fill="#414141" d="M-391.721,503.727c1.637,0,2.962,1.325,2.962,2.963s-1.325,2.973-2.962,2.973
			c-1.638,0-2.965-1.335-2.965-2.973S-393.359,503.727-391.721,503.727z"/>
		<circle fill="#414141" cx="-406.445" cy="500.773" r="2.963"/>
		<path fill="#414141" d="M-347.296,507.654c0,3.431,2.363,6.219,5.306,6.219h11.857c2.934,0,5.313-2.788,5.313-6.219
			s-2.379-6.218-5.313-6.218h-11.857C-344.923,501.437-347.296,504.224-347.296,507.654z M-344.503,507.654
			c0-2.572,1.796-4.659,3.989-4.659h8.915c2.197,0,3.972,2.087,3.972,4.659c0,2.573-1.775,4.678-3.972,4.678h-8.915
			C-342.707,512.313-344.503,510.228-344.503,507.654z"/>
		<g>
			<path fill="#E4516A" d="M-226.383,488.492c4.492,20.391-11.945,47.778-19.972,55.099l-26.058-1.472l-4.015-11.385l-37.876,6.062
				l-38.752,2.204c-15.829,6.92-20.236-8.5-16.54-16.024l14.96-30.332l-7.773-17.368l-33.605-13.451
				c-9.232-4.464-4.372-19.513,4.998-18.519c10.182-4.659,20.113-6.336,30.562-13.958c9.761-8.293,29.796-14.405,39.425-13.158
				c3.631,0.293,2.354-6.423,4.45-10.097c2.076-3.48,20.444-1.433,30.819,7.076l12.476,8.138
				C-260.726,436.542-230.868,468.103-226.383,488.492z"/>
			<path fill="#BEAFCA" d="M-225.315,489.087l-13.703-6.219c-16.211,9.571-30.533,28.997-33.994,40.907v17.407l27.746,3.763
				C-230.935,529.273-224.058,516.524-225.315,489.087z"/>
			<path fill="#FBD9C3" d="M-246.593,543.601c3.621,3.411,0.106,16.53-4.055,18.538c-4.152,1.988-17.256-3.188-20.888-6.588
				c-3.626-3.374-5.073-11.774-0.907-13.782C-264.161,540.053-255.648,540.715-246.593,543.601z"/>
			<path fill="#333332" d="M-371.672,524.535c2.284-2.086,14.464,0.117,17.646,3.567c3.182,3.441,3.723,15.03,1.429,17.126
				c-2.286,2.057-12.018-1.199-15.19-4.67C-370.971,537.147-373.968,526.611-371.672,524.535z"/>
			<path fill="#333332" d="M-401.655,441.552c2.916-1.033,13.324,5.663,14.943,10.06c1.617,4.405-2.333,15.302-5.258,16.354
				c-2.916,1.034-10.63-5.711-12.258-10.116C-405.825,453.473-404.568,442.596-401.655,441.552z"/>
			<path fill="#BEAFCA" d="M-284.722,417.984c-11.238-3.285-22.821-4.104-35.6-2.466l3.674-10.127
				c4.192-2.885,20.371-0.526,31.011,7.991L-284.722,417.984z"/>
			<path fill="#FBD9C3" d="M-306.809,405.431c4.913,1.861,9.152,11.423,8.992,13.782c-0.146,2.34-7.062-2.047-9.946,0.33
				c-3.046,3.374-3.953,12.682-7.36,13.997c-3.383,1.325-10.965-1.852-12.983-6.102c-2.007-4.229-2.645-15.672,0.917-19.338
				C-323.646,404.437-312.058,404.797-306.809,405.431z"/>
			<g>
				<path fill="#F6D5C0" d="M-192.899,364.631c-19.342-7.058-41.429,10.077-55.634,15.264c-14.219,5.204-20.819-2.145-29.649,15.946
					c-8.844,18.069-0.448,45.01,10.819,60.848c16.267,21.55,44.382,32.661,62.949,35.976c18.554,3.294,39.182-2.554,48.428-16.258
					c10.058-13.978,28.685-30.156,23.552-54.075C-137.016,396.6-173.536,371.728-192.899,364.631z"/>
				<path fill="#515352" d="M-249.031,380.811c3.018,2.476,11.58,12.027,14.703,19.406c1.418-1.103,1.896-1.678,2.076-3.929
					c-1.54-7.681-8.752-13.879-11.092-16.092C-245.847,378.726-248.221,379.436-249.031,380.811z"/>
				<path fill="#515352" d="M-209.395,427.458c7.193,2.943,24.031,17.164,23.704,21.443c-0.342,3.099-2.836,6.004-4.663,3.489
					c-8.153-10.244-16.078-17.545-23.632-22.944C-216.291,428.403-212.729,426.415-209.395,427.458z"/>
				<path fill="#E0A074" d="M-242.393,431.708c2.687-1.735-3.952-6.394-6.276-10.234c-2.324-3.859-2.335-8.333-4.675-9.376
					c-2.533,0.458-2.076,5.81,0.143,10.078C-251.004,426.455-244.726,433.784-242.393,431.708z"/>
				<path fill="#F6AA74" d="M-203.278,457.322c4.913-0.215,5.267,10,2.475,12.388c-2.802,2.388-13.742,7.126-19.333,1.979
					c-5.57-5.147-5.059-10.05-2.582-15.479c1.734-4.366,5.039-4.815,9.888-2.903c4.874,1.93,5.79,5.838,5.857,8.011
					c0.084,2.164-3.752,4.941-5.399,5.02c-1.631,0.088-5.907-2.534-4.43-4.541c1.486-1.999,3.363,1.588,4.419,1.373
					c1.073-0.214,2.379-1.617,1.912-2.748c-0.464-1.13-3.208-3.733-4.713-4.025c-1.465-0.263-3.673,0.322-4.2,2.329
					c-0.55,1.989-3.167,6.307,1.018,9.678c4.162,3.403,12.193,0.8,14.698-1.042C-201.154,465.499-202.528,460.052-203.278,457.322z"
					/>
				<path fill="#F6AA74" d="M-258.392,385.266c0.688-3.148-9.124-2.213-11.677-0.147c-2.564,2.086-8.124,9.669-3.713,12.651
					c4.43,2.982,9.191,2.086,14.639-0.146c4.352-1.617,5.112-3.791,3.723-6.687c-1.404-2.894-5.068-3.031-7.144-2.825
					c-2.075,0.204-5.121,2.992-5.331,4.024c-0.238,1.073,1.877,3.52,3.953,2.32c2.065-1.188-1.229-1.969-0.907-2.671
					c0.312-0.711,1.77-1.716,2.816-1.54c1.039,0.156,3.28,1.619,3.412,2.554c0.15,0.916-0.628,2.398-2.617,2.963
					c-1.983,0.604-6.365,2.768-9.22,0.487c-2.866-2.279,0.38-7.72,2.387-9.571C-266.067,384.855-260.936,385.118-258.392,385.266z"
					/>
				<path fill="#F6D5C0" d="M-162.27,475.607c2.935,2.026,9.836,3.538,8.828,6.092c-0.991,2.544-10.869,8.47-14.802,9.249
					c-3.931,0.771-6.949-3.626-8.752-4.562"/>
				<path fill="#F0A27D" d="M-162.259,397.205c-4.66-3.218-14.153-11.873-12.223-15.088c1.927-3.227,20.04-0.138,23.792-4.211
					c3.761-4.074,4.372-7.271-1.608-10.8c8.875-2.777,13.276,5.205,14.235,10.917c0.974,5.711-4.362,20.175-8.397,23.382
					C-150.489,404.612-157.585,400.421-162.259,397.205z"/>
			</g>
		</g>
		<path fill="#FFCBA5" d="M-276.458,530.666c-2.124-3.693-6.992-12.504-10.537-13.927c-3.556-1.424-6.846,5.905-10.77,5.351
			c-4.036,0.166-9.016-5.117-13.426-4.416c-4.401,0.722-11.565,5.771-13.021,8.637c-1.448,2.904,4.346,6.5,4.346,8.645
			c-1.105,2.506-9.399,2.886-8.679,4.318l17.355,4.336h21.71l8.67-4.336L-276.458,530.666z"/>
		<path fill="#F8BF8F" d="M-396.663,374.855c-9.693,14.055-44.143,68.997-40.054,79.056c4.054,10.058,52.72,18.187,71.253,19.629
			l10.808-9.979c4.211-2.555,9.524-4.845,14.504-5.186c5.039-0.381,7.238,3.841,15.59,2.992c8.275,0.966,19.692,6.053,21.818,9.152
			c2.085,3.1-3.582,5.224-9.264,9.376c-19.341,10.556-37.686,14.055-49.864,12.34c-17.344,0-84.982-9.611-93.636-30.585
			c-8.676-20.956,26.788-77.507,39.551-93.072C-410.167,359.972-391.435,356.794-396.663,374.855z"/>
		<path fill="#784694" d="M-430.987,385.411l28.807-36.628c4.041-5.868,20.317,7.895,9.439,24.074
			c-4.601,7.426-11.121,19.688-18.655,29.688C-414.109,396.824-419.891,387.478-430.987,385.411z"/>
	</g>
	<g>
		<path fill="#FFCBA6" d="M148.855,603.854c-7.466,15.097-13.604,34.182-18.558,48.91c-2.865,3.234-8.654,1.637-7.026-3.442
			c5.331-16.306,12.242-36.158,18.938-48.528L148.855,603.854z"/>
		<polygon fill="#225F8C" points="141.37,654.46 159.324,713.914 165.006,713.914 176.011,680.923 184.763,682.062 206.42,717.696 
			212.522,716.566 226.957,656.282 		"/>
		<path fill="none" d="M149.899,601.107c-7.612,15.184-13.829,34.444-18.859,49.297c-2.906,3.255-8.831,1.618-7.204-3.509
			c5.4-16.432,12.398-36.451,19.23-48.908L149.899,601.107z"/>
		<path fill="#0D7C46" d="M148.487,607.685c-2.535-4.209-6.513-6.051-8.267-4.931c1.491-3.559,2.963-6.423,6.003-9.406
			c1.679-2.183,9.027-0.312,6.191,5.75L148.487,607.685z"/>
		<path fill="#649C46" d="M148.525,592.489c-5.214,5.36-7.038,36.463-7.34,63.141c15.79,11.589,74.203,8.957,89.27-1.619
			c3.141-15.964,0.04-56.103-10.983-64.619C215.173,583.134,161.596,581.447,148.525,592.489z"/>
		<path opacity="0.102" enable-background="new    " d="M199.638,599.079v66.745l30.272-5.711c1.149-21.502,1.589-21.6-0.663-47.096
			l-7.174-21.697c-4.015-6.55-31.403-7.602-54.707-5.107c-10.341,0.449-17.476,4.767-20.4,7.915
			C170.319,591.359,195.583,597.217,199.638,599.079z"/>
		<path fill="none" d="M170.182,583.367l1.521,8.129l3.062,4.269l10.72-4.815c0.077-2.338-0.067-5.242,0.021-7.582H170.182z"/>
		<path fill="#FFCBA6" d="M132.696,652.561l25.4-11.201c1.345,0.255,4.277,2.262,6.462,1.501c2.192-0.73,5.352-4.387,6.715-6.003
			l1.365-3.627l2.202-2.123l-1.199-3.334c-1.696-0.877-7.416-2.729-8.938-1.842c-1.52,0.877-2.348,5.331-8.596,8.46l-29.63,9.474
			c-1.453,0.077-4.377,6.647-3.333,8.099C124.148,653.437,127.219,654.771,132.696,652.561z"/>
		<polygon fill="#333332" points="164.997,713.896 160.085,713.525 147.647,716.556 150.279,719.977 168.39,719.596 
			169.149,716.166 		"/>
		<polygon fill="#333332" points="207.122,716.546 212.502,715.785 226.617,721.108 222.035,724.169 204.463,723.018 
			204.072,718.456 		"/>
		<path fill="#FFCBA6" d="M103.245,531.173c-8.199,33.607,12.542,43.87,35.446,49.797c46.276,10.088,89.465-1.872,99.387-9.006
			c9.922-7.105,18.187-18.46,19.591-25.381c33.842-10.741,34.435-58.402,6.745-46.492c-0.576-14.152,11.101-26.9-10.098-38.411
			L137.16,430.343c-25.613,2.594-16.453,8.597-23.06,22.125c-23.228,11.307-18.996,50.255-18.179,59.612
			C100.523,521.66,99.055,526.193,103.245,531.173z"/>
		<path fill="#754C24" d="M97.997,474.359c-4.219-12.241,24.757-10.253,40.1-2.28c13.449-4.796,71.093-17.515,88.48-8.577
			c24.211,10.604,20.224,40.761,21.102,52.72l-2.495,9.366l9.873,4.874l9.758-29.396l-5.918,46.142
			c29.689-40.819,30.235-78.832,26.961-103.843c-3.315-25.01-19.425-47.991-46.727-46.198
			C210.396,375.372,61.677,369.388,97.997,474.359z"/>
		<path fill="none" d="M136.654,546.944c2.864-3.685,3.646-13.89,5.358-11.024c1.931,5.107,13.677,5.683,9.438,11.307
			L136.654,546.944z"/>
		<path fill="#ED8039" d="M121.976,540.014c0.185,0,0.331,0.146,0.331,0.332c0,0.194-0.146,0.341-0.331,0.341
			c-0.195,0-0.342-0.146-0.342-0.341C121.634,540.159,121.78,540.014,121.976,540.014z"/>
		<path fill="#ED8039" d="M124.801,542.354c0.43,0,0.78,0.35,0.78,0.789c0,0.438-0.351,0.789-0.78,0.789
			c-0.438,0-0.799-0.351-0.799-0.789C124.002,542.703,124.362,542.354,124.801,542.354z"/>
		<path fill="#ED8039" d="M115.026,548.191c0.439,0,0.79,0.351,0.79,0.789c0,0.429-0.351,0.779-0.79,0.779
			c-0.438,0-0.789-0.351-0.789-0.779C114.237,548.542,114.588,548.191,115.026,548.191z"/>
		<path fill="#ED8039" d="M123.438,549.429c0.243,0,0.448,0.234,0.448,0.507c0,0.283-0.205,0.507-0.448,0.507
			c-0.233,0-0.439-0.224-0.439-0.507C122.998,549.663,123.204,549.429,123.438,549.429z"/>
		<path fill="#ED8039" d="M161.021,539.332c0.196,0,0.351,0.146,0.351,0.331c0,0.194-0.154,0.351-0.351,0.351
			c-0.176,0-0.331-0.156-0.331-0.351C160.689,539.478,160.845,539.332,161.021,539.332z"/>
		<path fill="#ED8039" d="M164.413,536.524c0.427,0,0.778,0.352,0.778,0.789c0,0.438-0.352,0.79-0.778,0.79
			c-0.439,0-0.79-0.352-0.79-0.79C163.623,536.876,163.974,536.524,164.413,536.524z"/>
		<path fill="#ED8039" d="M168.098,547.295c0.447,0,0.798,0.352,0.798,0.789c0,0.429-0.351,0.779-0.798,0.779
			c-0.431,0-0.78-0.351-0.78-0.779C167.317,547.646,167.667,547.295,168.098,547.295z"/>
		<path fill="#ED8039" d="M170.747,539.663c0.254,0,0.449,0.194,0.449,0.448c0,0.243-0.195,0.447-0.449,0.447
			c-0.252,0-0.448-0.204-0.448-0.447C170.299,539.857,170.495,539.663,170.747,539.663z"/>
		<path fill="#F2A37D" d="M136.284,547.392c-1.735,0.518,3.234,3.129,5.799,3.129c2.573,0,9.775-1.413,9.658-3.129
			C145.844,546.66,136.626,546.173,136.284,547.392z"/>
		<path opacity="0.2" fill="#FFFFFF" enable-background="new    " d="M149.733,543.912c0.976,0,1.755,0.536,1.755,1.209
			c0,0.662-0.779,1.209-1.755,1.209c-0.954,0-1.744-0.547-1.744-1.209C147.989,544.448,148.779,543.912,149.733,543.912z"/>
		<path fill="#FFCBA6" d="M263.107,500.52c-5.633,3.724-4.19,30.653-6.287,45.986c3.374,1.423,28.307-13.617,28.307-31.678
			C285.127,502.781,276.384,492.371,263.107,500.52z"/>
		<path opacity="0.502" fill="#E0AE8E" enable-background="new    " d="M263.011,504.75c8.226-4.863,15.984-1.189,17.446,4.133
			c1.705,5.146-2.407,12.271-4.19,14.269c-1.775,1.969-4.29-3.625-6.501-2.35c-2.213,1.288-5.234,12.097-6.755,10.021
			C263.069,522.841,262.932,512.704,263.011,504.75z"/>
		<path fill="#FFFFFF" d="M131.45,559.645c18.283,3.878,23.918,2.455,39.024-2.105c8.442-2.477,9.494,9.823,4.737,14.229
			c-11.939,5.81-30.216,8.986-43.235,1.599C124.607,567.908,123.017,557.704,131.45,559.645z"/>
		<path fill="none" d="M129.324,559.214l0.371,2.69c19.259,6.024,37.602,0.438,46.481-2.749c4.846,4.865,0.088,13.646-4.094,14.134
			c-11.677,3.938-28.216,4.503-40.341-1.618l-1.072,0.623C123.73,566.564,123.886,558.211,129.324,559.214z"/>
		<path opacity="0.2" fill="#FFFFFF" enable-background="new    " d="M136.654,471.748c-37.999-18.052-33.915-46.083-21.277-69.183
			C105.552,430.938,117.463,463.111,136.654,471.748z"/>
		<path fill="#864827" d="M178.253,492.761c9.229-5.926,52.388,3.109,57.349,4.542C236.245,490.432,173.332,476.66,178.253,492.761z
			"/>
		<path fill="#FFBF93" d="M172.442,537.089c16.16,15.713,37.896,10.507,45.44,5.391
			C208.984,544.468,189.843,547.168,172.442,537.089z"/>
		<path fill="#FFFFFF" d="M171.703,532.548c-0.723-1.561-3.217-2.681-3.237-4.133c-0.018-1.462,3.004-3.109,3.091-4.619
			c2.311-26.219,55.266-27.594,56.287-2.136C223.167,550.892,179.209,547.537,171.703,532.548z"/>
		<path fill="#86A057" d="M187.473,509.477c8.402,0,15.207,6.336,15.207,14.152c0,7.817-6.805,14.153-15.207,14.153
			c-8.392,0-15.205-6.336-15.205-14.153C172.268,515.812,179.081,509.477,187.473,509.477z"/>
		<path fill="#F5D8E6" d="M169.306,527.021c-0.595-0.243-1.901,2.086-1.55,2.847c0.342,0.751,3.392,2.144,3.655,1.696
			C169.852,530.091,169.714,528.883,169.306,527.021z"/>
		<path opacity="0.102" fill="#FFFFFF" enable-background="new    " d="M184.236,515.081c5.264,0,9.533,4.289,9.533,9.591
			c0,5.303-4.27,9.61-9.533,9.61c-5.261,0-9.53-4.308-9.53-9.61C174.706,519.37,178.976,515.081,184.236,515.081z"/>
		<path opacity="0.102" fill="#FFFFFF" enable-background="new    " d="M189.305,520.315c3.714,0,6.726,2.973,6.726,6.627
			c0,3.656-3.012,6.629-6.726,6.629c-3.723,0-6.724-2.973-6.724-6.629C182.581,523.288,185.582,520.315,189.305,520.315z"/>
		<path opacity="0.2" fill="#FFFFFF" enable-background="new    " d="M193.848,515.959c2.457,0,4.445,1.988,4.445,4.443
			c0,2.457-1.988,4.445-4.445,4.445c-2.447,0-4.436-1.988-4.436-4.445C189.412,517.947,191.4,515.959,193.848,515.959z"/>
		<path d="M183.379,518.024c2.554,0,4.64,2.067,4.64,4.641c0,2.553-2.086,4.639-4.64,4.639c-2.572,0-4.648-2.086-4.648-4.639
			C178.73,520.092,180.807,518.024,183.379,518.024z"/>
		<path fill="#864827" d="M171.761,521.554c5.068-27.974,42.087-19.483,48.821-16.589c9.367,3.859,10.225,10.818,10.077,12.748
			c-1.665,11.734-10.942,29.143-33.05,26.413c18.461-1.207,29.689-12.192,29.338-26.725
			C224.102,502.157,177.016,495.179,171.761,521.554z"/>
		<path fill="#864827" d="M127.023,493.854c-5.206-4.952-26.17,5.595-32.5,10.253C90.592,496.582,129.909,477.362,127.023,493.854z"
			/>
		<path fill="#FFFFFF" d="M131.41,529.33c-7.651,16.843-36.336,11.639-36.088-7.933c0.492-21.004,33.058-15.166,36.613,3.996
			C132.775,526.563,133.848,529.37,131.41,529.33z"/>
		<path fill="#F5D8E6" d="M132.871,526.125c0.41-0.224,1.316,1.881,1.073,2.554c-0.234,0.691-2.359,1.92-2.534,1.51
			C132.482,528.883,132.569,527.791,132.871,526.125z"/>
		<path fill="#86A057" d="M106.692,511.398c5.937,0,10.75,4.892,10.75,10.916c0,6.043-4.813,10.925-10.75,10.925
			s-10.752-4.882-10.752-10.925C95.94,516.29,100.756,511.398,106.692,511.398z"/>
		<path opacity="0.102" fill="#FFFFFF" enable-background="new    " d="M105.994,515.081c3.33,0,6.021,3.002,6.021,6.726
			c0,3.704-2.69,6.726-6.021,6.726c-3.333,0-6.027-3.021-6.027-6.726C99.967,518.083,102.661,515.081,105.994,515.081z"/>
		<path opacity="0.102" fill="#FFFFFF" enable-background="new    " d="M109.035,518.396c2.316,0,4.188,2.144,4.188,4.795
			c0,2.652-1.871,4.795-4.188,4.795c-2.313,0-4.19-2.143-4.19-4.795C104.845,520.539,106.722,518.396,109.035,518.396z"/>
		<path opacity="0.2" fill="#FFFFFF" enable-background="new    " d="M111.995,515.764c1.55,0,2.808,1.286,2.808,2.885
			s-1.258,2.886-2.808,2.886c-1.541,0-2.787-1.287-2.787-2.886S110.454,515.764,111.995,515.764z"/>
		<path d="M104.236,518.045c1.974,0,3.571,1.715,3.571,3.839c0,2.125-1.598,3.842-3.571,3.842c-1.975,0-3.572-1.717-3.572-3.842
			C100.664,519.76,102.262,518.045,104.236,518.045z"/>
		<path fill="#864827" d="M127.901,516.719c-9.356-9.922-23.085-9.182-28.656-2.787c-7.583,9.736,2.286,23.781,12.554,25.956
			c-11.875-2.164-15.735-11.96-17.222-17.837C91.221,506.407,115.758,501.621,127.901,516.719z"/>
		<path fill="#FFBF93" d="M102.76,537.206c12.666,4.191,19.156,1.326,27.071-2.231C128.038,539.273,113.846,545.979,102.76,537.206z
			"/>
		<path fill="#FFCBA6" d="M172.442,582.606l1.562,8.187l3.07,4.319l10.797-4.864c0.07-2.358-0.059-5.282,0-7.642H172.442z"/>
		<path fill="#FFCBA6" d="M216.675,602.198c1.588,7.29,6.434,35.224,3.118,38.597c-3.322,3.41-24.348-1.365-32.067-3.839
			l-2.708-5.849c-1.297-1.726-3.061-3.529-5.039-4.484c-1.979-0.983-3.539,0.35-6.784-1.364c-3.519-0.984-8.957-0.818-10.341,0.079
			c-1.345,0.895,0.603,2.708,2.202,5.34c6.062,7.456,12.925,11.901,18.11,13.227c7.016,2.874,35.966,10.186,42.934,3.129
			c6.998-7.039,2.007-35.771-0.594-44.192C224.609,598.417,217.57,594.039,216.675,602.198z"/>
		<path fill="#0D7C46" d="M216.752,606.076c3.607-3.47,8.07-4.238,9.514-2.688c-0.574-3.859-1.307-7.057-3.52-10.741
			c-1.12-2.593-8.898-2.632-7.689,4.015L216.752,606.076z"/>
	</g>
</g>
</svg>
